<svg xmlns="http://www.w3.org/2000/svg" width="189.652" height="91.717" viewBox="0 0 189.652 91.717"><path d="M46.331-533.484a4.379,4.379,0,0,1-2.013.627q-1.834.306-4.075.56t-4.228.509q-1.987.255-2.6.357a7.74,7.74,0,0,0,1.273.306,7.747,7.747,0,0,1,1.273.306q0-.306-.357-.306a1.269,1.269,0,0,1-.56-.1,3.345,3.345,0,0,1,1.222-.356q.611-.051,1.222-.051a2.183,2.183,0,0,1-.509.407H37.9a.551.551,0,0,1-.255-.2.8.8,0,0,0-.153-.2l1.222-.306a2.371,2.371,0,0,0-.407.611,1.419,1.419,0,0,0,.611.1q1.528-.2,3.005-.306a10.8,10.8,0,0,0,2.9-.611.922.922,0,0,0,.662.153,5.4,5.4,0,0,1,.764-.051l2.037-.2,2.037-.2a3.134,3.134,0,0,1-1.375.357q-1.172.153-2.5.306t-2.445.357q-1.121.2-1.222.407,1.222-.1,2.5-.2t2.5-.306q.306.611.56.662a4.221,4.221,0,0,0,.764.051,9.611,9.611,0,0,0,1.987-.2q.968-.2,1.987-.407a4.721,4.721,0,0,0-.917-.1H50.074a2.853,2.853,0,0,0-1.07.2,3.313,3.313,0,0,1,1.936-.509q1.528-.1,4.177-.509-.2.509-.56.509a1.718,1.718,0,0,0-.764.2,4.531,4.531,0,0,0,.866.1h.866a21.4,21.4,0,0,0,2.649-.153q1.222-.153,2.547-.255a.208.208,0,0,0,.051.153.208.208,0,0,1,.051.153q-6.418.611-12.734,1.375t-12.836,2.19h.866q.56,0,.56.2a4.26,4.26,0,0,0-.713.2,2.181,2.181,0,0,0,.764.407,2.9,2.9,0,0,0,.968.2,7.515,7.515,0,0,0,1.324-.153q.815-.153,1.426-.255,4.482-.509,9.016-1.172a59.023,59.023,0,0,1,8.506-.662h2.037a14.371,14.371,0,0,0,1.681-.1,14.4,14.4,0,0,1,1.681-.1.411.411,0,0,1,.407.2.452.452,0,0,0-.2.051.452.452,0,0,1-.2.051h-.713a2.333,2.333,0,0,0-1.222.306,2.333,2.333,0,0,1-1.222.306,1.417,1.417,0,0,1-.611-.1,1.278,1.278,0,0,0,1.121.611,14.563,14.563,0,0,0,2.5-.2,14.563,14.563,0,0,1,2.5-.2q1.222,0,2.649-.051t1.426,1.07a22.888,22.888,0,0,1-3.617.357,8.027,8.027,0,0,0-3.413.764,1.676,1.676,0,0,1-.407-.051,1.676,1.676,0,0,0-.408-.051v.2a4.217,4.217,0,0,1,1.324-.306,17.07,17.07,0,0,1,1.885-.1h3.311q.917-.1,1.834-.153t1.834-.051a1.245,1.245,0,0,1,.917.306,3.708,3.708,0,0,1-1.732.713q-1.121.2-2.292.306t-2.19.153a8.521,8.521,0,0,0-1.426.153,2.081,2.081,0,0,0,.662.1h.662a33.656,33.656,0,0,0,3.617-.2q1.885-.2,3.922-.407.1.2-2.037.56t-4.89.713q-2.751.357-5.247.662t-3.107.306q-.509.1-.917.2a7.222,7.222,0,0,0-.917.306l7.742-.611q3.871-.306,7.946-.713a10.68,10.68,0,0,1-3.362.866,21.953,21.953,0,0,0-2.649.357,15.33,15.33,0,0,1-4.024.662q-1.987.051-4.024.255-5.807.713-11.461,1.375t-11.461,1.477a1.237,1.237,0,0,0-1.07,1.019,11.678,11.678,0,0,0-.357,2.139,14.088,14.088,0,0,0,0,2.394q.1,1.172.1,1.783,0,2.954.255,6.112t.255,6.52q0,4.686-.407,9.372l-.815,9.372a39.267,39.267,0,0,1-.866,6.469,15.162,15.162,0,0,1-2.7,5.654.821.821,0,0,1-.611.408,5.6,5.6,0,0,1-2.343-.509A7.844,7.844,0,0,1,25.37-469.8a8.828,8.828,0,0,1-1.732-1.834.59.59,0,0,1,.1-.407q-.306-.1-.509-.153t-.509-.153a20.147,20.147,0,0,1,.764-2.547,7.789,7.789,0,0,0,.458-2.751,10.4,10.4,0,0,0-.56,2.037q-.255,1.324-.866,1.324.1-.713.2-1.375t.2-1.477l-.611.2a32.181,32.181,0,0,1-1.172-5.552,44.846,44.846,0,0,1-.357-5.45q0-1.426.051-2.9t.153-2.9a7.351,7.351,0,0,0-1.121,3.82q-.1,2.292-.306,3.718a9.734,9.734,0,0,1-.255-1.885q-.051-1.07-.051-1.987a18.97,18.97,0,0,1,.1-1.987q.1-.968.2-2.088a2.65,2.65,0,0,0-.1-.815,5.591,5.591,0,0,0-.306-.713,1.358,1.358,0,0,0-.509.611q-.1.306-.407,1.732.306-5.3.306-10.9,0-3.158-.051-6.265t-.153-6.367a2.864,2.864,0,0,1-.56-.051,2.358,2.358,0,0,0-.458-.051q-4.279.2-8.456.357t-8.456.153q-.611,0-1.579-.051t-1.783-.153a5.476,5.476,0,0,1-1.426-.357.826.826,0,0,1-.611-.764q-.306-2.852-.458-5.96T-5.6-529.6q0-.815.1-1.986t1.019-1.172q5.909,0,11.817-.509t12.021-.509a1.673,1.673,0,0,1,.407.051,1.676,1.676,0,0,0,.407.051,2.482,2.482,0,0,1-1.834.713h-.917q-.815,0-2.19.051t-2.649.153a17.928,17.928,0,0,0-2.241.306q-.968.2-1.07.509a.709.709,0,0,1,.306.051.709.709,0,0,0,.306.051q6.724-.611,13.549-1.222t13.549-1.324H37.7q-.1.1-.1.153t-.1.153a1.1,1.1,0,0,0,.815.306,1.267,1.267,0,0,0,.917-.407q-.815-.2-.815-.407l4.89-.611q0,.2-.458.306t-.866.2a.806.806,0,0,1,.1.509q-6.826,1.121-13.447,1.732t-13.957,1.528q.407.509.713.509H16a15.212,15.212,0,0,1,1.528-.306,10.826,10.826,0,0,1,1.528-.1,6.557,6.557,0,0,1,.815.051,6.569,6.569,0,0,0,.815.051,3.543,3.543,0,0,0,1.273-.255,3.8,3.8,0,0,1,1.375-.255,2.711,2.711,0,0,1,1.222.306,1.281,1.281,0,0,1,.968-.56q.764-.153,1.681-.255a15.73,15.73,0,0,1,1.732-.1h1.121q3.871-.509,8.1-.815C40.973-532.857,43.614-533.144,46.331-533.484Zm-6.19,2.766a5.723,5.723,0,0,0,1.121-.1h-.611a3.488,3.488,0,0,0-.662.1,4.447,4.447,0,0,1-.968.1l.1.1A6.115,6.115,0,0,0,40.141-530.718ZM19.257-512.89a7.776,7.776,0,0,0,.306-2.241,5.769,5.769,0,0,0-.306-1.834,1.718,1.718,0,0,0-.2.764v.662a8.068,8.068,0,0,0,.1,1.324A8.068,8.068,0,0,1,19.257-512.89Zm31.886-9.576a4.873,4.873,0,0,1,1.732-.1,3.042,3.042,0,0,0,1.732-.306,4.834,4.834,0,0,0-1.121-.1A6.086,6.086,0,0,0,51.144-522.466ZM38-530.31q0-.2-.509-.2a11.3,11.3,0,0,0-1.426.153q-1.019.153-1.019.357.815-.1,1.477-.153T38-530.31ZM25.573-515.029a4.388,4.388,0,0,1,.051-.713,4.387,4.387,0,0,0,.051-.713,1.448,1.448,0,0,0-.2-.815,3.091,3.091,0,0,0-.1.917A5.724,5.724,0,0,0,25.573-515.029Zm-4.584-.917a1.174,1.174,0,0,0,.407-.815.83.83,0,0,0-.2-.611.881.881,0,0,0-.407.713A4.257,4.257,0,0,0,20.989-515.946Zm37.388-12.327v-.306a4.527,4.527,0,0,1-.866.1,3.161,3.161,0,0,0-.764.1q0,.2.1.2A8.438,8.438,0,0,0,58.377-528.273ZM22.415-516.557q-.408.306-.407.509a.834.834,0,0,0,.306.509A3.575,3.575,0,0,1,22.415-516.557Zm10.493-16.809v-.2a7.6,7.6,0,0,1-.764.153q-.357.051-.357.357Q32.6-533.264,32.908-533.366Zm14.568,11.1a.71.71,0,0,1,.306.051.452.452,0,0,0,.2.051q.2,0,.611-.407-.306.1-.509.153Zm-23.125,6.826a.634.634,0,0,0-.2.458v.56q.2,0,.2-.357Zm26.691-12.225q.1.1.153.1t.153.1a.452.452,0,0,1,.051-.2.452.452,0,0,0,.051-.2.18.18,0,0,0-.2-.2h-.1q-.2,0-.2.1a.208.208,0,0,0,.051.153A.207.207,0,0,1,51.042-527.661Zm4.177-.407a.294.294,0,0,0-.1-.2q-.407,0-.408.306A1.134,1.134,0,0,0,55.219-528.069Zm-2.343.407q0-.306-.407-.306-.1.1-.153.1t-.153.1a.248.248,0,0,0,.306.153A1.673,1.673,0,0,1,52.876-527.661Zm-13.447,1.528v-.2a.208.208,0,0,0-.153.051.4.4,0,0,1-.255.051l.2.2q.1,0,.1-.051T39.428-526.133Zm3.362-4.584q0,.306.407.306l-.1-.1Q42.994-530.514,42.79-530.718Zm24.959,2.954a.293.293,0,0,0,.1-.2q-.2,0-.2.051t-.1.051A.293.293,0,0,0,67.749-527.763ZM40.243-530l-.2-.1-.1.2A.415.415,0,0,0,40.243-530Zm18.91,37.553q-.255,0-.255-.032v-.35a6.933,6.933,0,0,1,.955-1.4q.382-.382.382-.446-.318-.127-.318-.255a.634.634,0,0,1,.446-.7.952.952,0,0,0,.637-.573,1.894,1.894,0,0,0-.255.191.259.259,0,0,1-.191.064h-.064a6.574,6.574,0,0,1,.446-.955q.255-.446.509-.955a.369.369,0,0,0,.255.064q.255,0,.446-.573h-.318q.318-.509.6-1.051t.6-1.051v.255a1.909,1.909,0,0,1,.35-.382.637.637,0,0,0,.223-.509,6.36,6.36,0,0,0-.573.637,4.455,4.455,0,0,0,.318-.637,1.94,1.94,0,0,1,.446-.637,2.089,2.089,0,0,1,.255.318,1.127,1.127,0,0,1,.191-.35.548.548,0,0,0,.127-.35.13.13,0,0,0-.032-.1.13.13,0,0,1-.032-.1h.127a.521.521,0,0,0,.318-.191.688.688,0,0,0,.191-.509v-.255a.861.861,0,0,1,.509-.828v.318q.191,0,.509-.382t.637-.8q.318-.414.541-.732t.223-.255v-.382l-.382.191a.922.922,0,0,1,.637-.573v.127a6.56,6.56,0,0,1,.6-.478q.478-.35.478-.541v-.191q0-.127.446-.127-.064-.064-.064-.1t-.064-.1a.66.66,0,0,0,.414-.191q.223-.191.478-.414a2.644,2.644,0,0,0,.414-.446l.159-.223q0-.064.287-.287t.637-.478q.35-.255.7-.478a3.086,3.086,0,0,0,.478-.35,1.131,1.131,0,0,0-.509.127,3.044,3.044,0,0,1,.987-.7A2.161,2.161,0,0,0,73.8-512a11.36,11.36,0,0,0-1.783.891,8.114,8.114,0,0,0-1.21,1.019,1.636,1.636,0,0,1-.86.764,2.341,2.341,0,0,0-.987.828.13.13,0,0,1-.1-.032.13.13,0,0,0-.1-.032,1.117,1.117,0,0,0-.318.127q0-.446.669-.828a2.433,2.433,0,0,0,.669-.446q0-.127.414-.446t.923-.669a10.337,10.337,0,0,1,.987-.6q.478-.255.6-.318a8.413,8.413,0,0,1,1.178-.541,3.747,3.747,0,0,1,1.305-.223,3.3,3.3,0,0,1,1.305.287,9.073,9.073,0,0,1,1.273.668,12.6,12.6,0,0,1,1.051.732q.446.35.637.478.891.509,1.528.955a16.08,16.08,0,0,0,2.1,1.146,4.152,4.152,0,0,1,1.242,1.051,9.12,9.12,0,0,1,.923,1.369,9.857,9.857,0,0,1,.764,1.655,3.03,3.03,0,0,0,.191.828q.191.573.446,1.242t.478,1.21q.223.541.287.732.127,1.146.382,2.483a12.536,12.536,0,0,1,.255,2.292v.318q0,.318.032.669t.032.732v.382q0,.637.032,1.114t.032,1.114a6.762,6.762,0,0,1-.064.955,6.763,6.763,0,0,0-.064.955,1.475,1.475,0,0,0,.032.287,1.476,1.476,0,0,1,.032.287q0,1.082-.064,2.037T88-484.492v.191a2.782,2.782,0,0,1-.064.6,2.783,2.783,0,0,0-.064.6v.127a.305.305,0,0,1-.1.223.389.389,0,0,0-.1.287q0,.064.127.064,0-.191.127-.191a1.79,1.79,0,0,0-.1.732.915.915,0,0,1-.223.669.55.55,0,0,1,.191.382,1.2,1.2,0,0,1-.064.382,1.2,1.2,0,0,0-.064.382.443.443,0,0,0,.032.191.443.443,0,0,1,.032.191,16.6,16.6,0,0,1-.191,2.388,15.114,15.114,0,0,0-.191,2.069.252.252,0,0,0,.032.159.252.252,0,0,1,.032.159.974.974,0,0,1-.318.7.519.519,0,0,1,.127.382,8.387,8.387,0,0,1-.064,1.146,7.268,7.268,0,0,0-.064,1.019v.127a4.923,4.923,0,0,1-.191,1.178,5.662,5.662,0,0,0-.191,1.433.26.26,0,0,1,.064.191.78.78,0,0,1-.318.541q-.318.286-.509.478-.191-.064-.191-.446a.489.489,0,0,1-.191.064.183.183,0,0,0-.127.064,2.733,2.733,0,0,1-1.655-.891q-.382-.573-.637-.573,0-.509-.414-.509a.52.52,0,0,1-.541-.318.443.443,0,0,0-.191.032.283.283,0,0,1-.127.032.287.287,0,0,1-.255-.1,1.544,1.544,0,0,0-.191-.223l-.127.064a3.332,3.332,0,0,0-.828-.637.574.574,0,0,1-.382-.509.432.432,0,0,1-.318.127,1.747,1.747,0,0,1-.509-.159.67.67,0,0,1-.446-.414H78.7q-.064,0-.35-.287a.852.852,0,0,1-.287-.6,14.991,14.991,0,0,1,.159-2.037q.159-1.146.35-2.292t.35-2.165a11.006,11.006,0,0,0,.159-1.592q.064-.509.1-1.019t.032-1.019H78.7q-.573,0-1.433.064l-1.687.127q-.828.064-1.464.159a3.759,3.759,0,0,0-.764.159h.255q.127,0,.064.064A1.451,1.451,0,0,1,73-482.3q-.541.1-1.242.223l-1.4.255q-.7.127-1.082.191-1.528.318-3.152.828a10.141,10.141,0,0,1-3.024.509q.191-.127.255-.159l.191-.1a2.343,2.343,0,0,1-.6-.127,2.343,2.343,0,0,0-.6-.127q-.127,0-.318.478a8.711,8.711,0,0,0-.35,1.114q-.159.637-.287,1.178t-.191.732q-.255,1.592-.446,3.375a33.442,33.442,0,0,0-.191,3.566q0,.382-.032.987a7.681,7.681,0,0,0,.032,1.21,3.631,3.631,0,0,0,.255,1.051.654.654,0,0,0,.637.446q.191.127.191.255a.666.666,0,0,1-.287.541,3.166,3.166,0,0,1-.637.382,4.348,4.348,0,0,1-.573.223q-.223.064-.1.064a2.429,2.429,0,0,1-1.082-.286,4.945,4.945,0,0,1-.987-.637,5.081,5.081,0,0,1-.573-.541q-.159-.191.032,0a8.866,8.866,0,0,0-1.21-.86q-.509-.287-.955-.509t-.86-.446a3.79,3.79,0,0,1-.86-.669l-.191.382a2.4,2.4,0,0,0-.8-.732,1.5,1.5,0,0,1-.573-.446,2.333,2.333,0,0,1-.318-1.082,26.081,26.081,0,0,1-.1-2.706.548.548,0,0,1,.127-.35.642.642,0,0,0,.127-.414,1.047,1.047,0,0,0-.064-.318,1.2,1.2,0,0,1-.064-.382.392.392,0,0,1,.064-.223.392.392,0,0,0,.064-.223.283.283,0,0,0-.032-.127.283.283,0,0,1-.032-.127,13.505,13.505,0,0,1,.255-2.865q.255-1.146.255-1.273A6.564,6.564,0,0,1,52.755-483a3.088,3.088,0,0,0,.478-1.369,1.316,1.316,0,0,1,.159-.7,2.992,2.992,0,0,0,.287-.637q0,.191.127.191a1.632,1.632,0,0,0-.255,1.019.259.259,0,0,0,.064.191l-.127.255-.127.255a.369.369,0,0,1,.255.064.513.513,0,0,0,.064-.223.216.216,0,0,1,.064-.159q.064,0,.064.191a2.462,2.462,0,0,1-.414.891,1.445,1.445,0,0,0-.287.891.4.4,0,0,1,.127.287q0,.159.255.159.064,0,.064-.446-.127.127-.159.127t-.1.127a2.563,2.563,0,0,1,.064-.7.367.367,0,0,0,.255.127,3.69,3.69,0,0,0,.255-1.082,1.838,1.838,0,0,1,.382-1.019q-.382,1.783-.8,3.629a16.561,16.561,0,0,0-.414,3.629l.064.064a16.858,16.858,0,0,1,.318-3.184q.318-1.655.669-2.993t.637-2.1q.287-.764.223-.509a1.026,1.026,0,0,0,.127-.446q.191.191.191.255a2.231,2.231,0,0,1-.127.7,1.093,1.093,0,0,0,.446-.064q.127-.064.255-.446l.064.064a.13.13,0,0,1-.032.1.13.13,0,0,0-.032.1q0,.127.064.127a2.728,2.728,0,0,0,.955-.191,2.367,2.367,0,0,0-.064-.573q-.064.127-.127.127a.184.184,0,0,0-.127.064,1.634,1.634,0,0,1,.127-.669,1.2,1.2,0,0,0,.127-.414.709.709,0,0,0-.064-.318,2.813,2.813,0,0,0,.732-1.051A11.218,11.218,0,0,0,57.944-490q.191-.669.287-1.178t.287-.509h.127a.634.634,0,0,1-.159.509q-.159.127-.159.191a.13.13,0,0,0,.032.1.13.13,0,0,1,.032.1,3.056,3.056,0,0,0,.541-1.019,2.4,2.4,0,0,1,.35-.764h.064q.064,0,.255-.191-.064,0-.191-.127a.183.183,0,0,0-.127-.064q-.127,0-.127.255ZM55.97-482.9l-.191.127a.056.056,0,0,1,.064.064.432.432,0,0,0,.127-.318.709.709,0,0,1,.064-.318Q55.97-483.346,55.97-482.9Zm17.446-27.379a.367.367,0,0,0,.255-.127h-.064a.656.656,0,0,0-.255.127q-.191.127-.191.255ZM59.727-493.852q.127,0,.255-.255a.58.58,0,0,0-.318.318l-.191.382q.255-.127.255-.255Zm12.161-10.76-.127-.255a.737.737,0,0,1-.1.159.736.736,0,0,0-.1.159l.064.064q-.255.318-.478.6t-.478.6a.55.55,0,0,0,.382-.191q.191-.191.382-.414a2.9,2.9,0,0,0,.318-.446A.864.864,0,0,0,71.888-504.612Zm-2.165-.382.127.127a.056.056,0,0,0,.064-.064.184.184,0,0,1,.064-.127l-.255.127a1.137,1.137,0,0,0,.1-.287q.032-.159.159-.1a.516.516,0,0,0-.509.446A.367.367,0,0,0,69.723-504.994Zm.891-1.019q0,.255.064.255a.257.257,0,0,1,.127-.255.259.259,0,0,0-.191.064v-.127a1.544,1.544,0,0,1-.223.191.214.214,0,0,0-.1.191,1.045,1.045,0,0,1,.159-.127A.48.48,0,0,0,70.614-506.013Zm4.9-4.457a1.292,1.292,0,0,0,.7-.255.907.907,0,0,0-.541.159.727.727,0,0,1-.414.159l.127.064ZM63.8-496.845a.931.931,0,0,0,.191-.318l-.127-.255q.255,0,.669-.669a3.548,3.548,0,0,0,.478-.987.709.709,0,0,1,.064-.318.513.513,0,0,0-.382.255q-.191.255-.382.541a3.263,3.263,0,0,0-.287.509q-.1.223-.032.223-.127,0-.191-.191a3.855,3.855,0,0,0,.255-.318q.191-.255.382-.541t.318-.509l.127-.223a.763.763,0,0,1,.255-.6,1.243,1.243,0,0,1,.509-.286,1,1,0,0,1-.255.382l-.382.382q0,.191.127.191h.191a1.84,1.84,0,0,0,.573-.573,5.859,5.859,0,0,0,.446-.8,4.038,4.038,0,0,0,.255-.669q.064-.255.064-.191a.481.481,0,0,0-.191.159.214.214,0,0,1-.191.1.056.056,0,0,1-.064-.064,2.288,2.288,0,0,1,.478-1.051q.35-.414.86-.923l.127.255q0,.191-.478.669a2.524,2.524,0,0,0-.478.541.259.259,0,0,0,.064.191,21.856,21.856,0,0,0,1.5-1.624,8.911,8.911,0,0,0,.8-1.114q.255-.509.382-.828a.282.282,0,0,0-.032-.127.444.444,0,0,1-.032-.191q0-.064.255-.318a.214.214,0,0,1-.1.191.214.214,0,0,0-.1.191q0,.064.191.127a7.242,7.242,0,0,1,1.146-1.464,2.448,2.448,0,0,1,.732-.478q.287-.1.414-.127t.127-.414h-.064a.056.056,0,0,0,.064-.064h.127a.257.257,0,0,0,.255-.127l-.191-.191a.183.183,0,0,1,.064-.127.367.367,0,0,0,.255.127.367.367,0,0,0,.255-.127q-.127-.127-.191-.127.382-.7.509-.7a.443.443,0,0,1,.191.032.662.662,0,0,0,.255.032q0-.191-.032-.191h-.159a3.109,3.109,0,0,1,.732-.509q.478-.255.891-.446t.764-.318q.35-.127.414-.255a7.66,7.66,0,0,0-2.165.923,5.168,5.168,0,0,1-1.082.6A6.526,6.526,0,0,0,71-508.369a15.217,15.217,0,0,0-1.655,1.655q-.7.828-1.114,1.369t-.35.414a3.881,3.881,0,0,1-.478.987,5.076,5.076,0,0,1-.573.7,6.012,6.012,0,0,1-.446.414q-.159.127.032.127a.978.978,0,0,0-.382.127.13.13,0,0,1,.032-.1.13.13,0,0,0,.032-.1.056.056,0,0,0-.064-.064.056.056,0,0,1-.064-.064l.127-.255.127-.255q-.318.191-.414.255a.862.862,0,0,1-.414.064l.064.127a.056.056,0,0,0,.064.064,1.474,1.474,0,0,0,.318-.191q-.318.446-.446.446t-.127.509a.488.488,0,0,1,.191.064q-.127.127-.127.191l.064.064a7.442,7.442,0,0,1,.637-.764,3.285,3.285,0,0,1-.8,1.305,2.315,2.315,0,0,0-.669,1.242,2.786,2.786,0,0,0-.891.923,3.673,3.673,0,0,0-.35.891q-.1.414-.127.669t-.159.255a1.925,1.925,0,0,0-.732.8q-.414.669-.764,1.369T61-493.948q-.191.478,0,.223-.127.191-.223.35a.668.668,0,0,0-.1.35.369.369,0,0,0,.064.255,1.088,1.088,0,0,0-.541.669q-.159.478-.35.923h.191q-.318.637-.764,1.464a12.945,12.945,0,0,0-.891,2.292v.191a1.607,1.607,0,0,0-.191.382,2.471,2.471,0,0,0-.127.318,1.047,1.047,0,0,0-.064.318l.127.064a.487.487,0,0,0,.35-.159q.159-.159.159-.223v-.127a1.329,1.329,0,0,1,.382-.923,1.489,1.489,0,0,0,.382-1.051.13.13,0,0,0-.032-.1.252.252,0,0,1-.032-.159q0-.318.191-.382a.294.294,0,0,0,.191-.318v-.191a1.24,1.24,0,0,1,.159-.446q.159-.318.287-.6t.223-.478q.1-.191.032-.127a4.677,4.677,0,0,1,.223-.637q.159-.382.35-.446a.369.369,0,0,1,.064.255,1.525,1.525,0,0,1-.223.669,1.525,1.525,0,0,0-.223.669.2.2,0,0,0,.127.191,2.535,2.535,0,0,1,.382-1.082,5.094,5.094,0,0,1,.509-.828,5.151,5.151,0,0,0,.573-1.082,10.569,10.569,0,0,1,.573-1.21q-.064-.127-.127-.127a.183.183,0,0,1-.127-.064q-.191.318-.255.318t-.064-.032q0-.032-.064-.032a.4.4,0,0,1,.223-.414q.223-.1.223-.223a.13.13,0,0,0-.032-.1.13.13,0,0,1-.032-.1,1.073,1.073,0,0,1,.191-.6,2.312,2.312,0,0,1,.414-.478,1.947,1.947,0,0,1,.35-.255q.127-.064-.064,0a1.572,1.572,0,0,1,.1-.478.583.583,0,0,1,.223-.35,1,1,0,0,0,.255.191,1.032,1.032,0,0,0-.159.287,1.036,1.036,0,0,0-.1.286.369.369,0,0,0,.064.255.183.183,0,0,1-.127.064q-.064,0-.064.127Q63.8-496.717,63.8-496.845Zm9.232-9.169a.96.96,0,0,0-.287.414.555.555,0,0,1-.159.286q.255,0,.287-.286a.68.68,0,0,1,.159-.414.708.708,0,0,1,.318.064q-.127-.127-.191-.127A.183.183,0,0,0,73.034-506.013Zm-3.948,2.228a3.733,3.733,0,0,0,.35-.191q.1-.064.159-.382a2.087,2.087,0,0,1-.255.318l-.255.255a.565.565,0,0,1,.064-.255.821.821,0,0,0-.35.287q-.1.159-.223.35a2.4,2.4,0,0,0,.223-.255.275.275,0,0,1,.223-.127Zm-2.228,8.023q.255,0,.478-.573t.223-.509v-.127l-.318.318q.064,0,.191.127-.255,0-.541.6a4.353,4.353,0,0,0-.287.669q.255-.255.255-.382Zm-1.019-3.375v-.255a.6.6,0,0,0-.318.382q.382-.127.318-.127a.977.977,0,0,0-.127.382.183.183,0,0,1,.064.127,2.872,2.872,0,0,1,.223-.35.688.688,0,0,0,.159-.35v-.127a.907.907,0,0,1-.191.159A.345.345,0,0,0,65.839-499.137Zm-2.228,9.869a4.383,4.383,0,0,1-.255.541q-.127.223-.255.478a.056.056,0,0,1,.064.064,2.542,2.542,0,0,0,.478-.923q.159-.541.287-.86A.974.974,0,0,0,63.61-489.268Zm4.075-13.116-.064-.127a.383.383,0,0,0-.255.255l.064.064.255-.255q0,.255.064.255a.61.61,0,0,0,.255-.159,4.481,4.481,0,0,1,.382-.286,1.131,1.131,0,0,0-.509.127A.741.741,0,0,0,67.685-502.384ZM83.54-487.676a.519.519,0,0,0-.127.382.887.887,0,0,0,.064.382.521.521,0,0,0,.191-.318.611.611,0,0,0-.191-.446q.127-.127.191-.127t.064-.127a.183.183,0,0,0-.127-.064.252.252,0,0,1-.032.159A.252.252,0,0,0,83.54-487.676Zm-22.794,9.423q0-.064.127-.191a.866.866,0,0,0,.127-.573v-.255a2.682,2.682,0,0,0-.287,1.051q-.032.541-.032.6a.183.183,0,0,0,.064.127,1.046,1.046,0,0,1,.032-.255,1.047,1.047,0,0,0,.032-.255A.369.369,0,0,0,60.745-478.253ZM66.6-497.29a2.832,2.832,0,0,0,.287-.35.688.688,0,0,0,.159-.35q0-.064-.127-.191l-.255.255a.432.432,0,0,0-.127.318.443.443,0,0,0,.032.191.443.443,0,0,1,.032.191.374.374,0,0,0-.191.318Q66.6-496.972,66.6-497.29Zm-1.592-.573a.144.144,0,0,1,.159-.032q.1.032.1-.223a.345.345,0,0,1-.127.159.5.5,0,0,0-.127.1.513.513,0,0,1,.191-.414,1.175,1.175,0,0,0,.318-.478q-.382.318-.382.509v.064a2.5,2.5,0,0,0-.35.446.954.954,0,0,0-.159.509.265.265,0,0,1,.255-.1q.127.032.127-.159,0-.127-.064-.127A.369.369,0,0,0,65.011-497.863Zm-.7-2.8a2.493,2.493,0,0,0,.478-.637,6.62,6.62,0,0,1,.414-.7q-.318.191-.318.318t-.382.318a.259.259,0,0,1,.064.191.441.441,0,0,1-.223.35,2.828,2.828,0,0,0-.35.287l.127.127q0,.064.064,0Zm4.966-.828a.113.113,0,0,0,.127-.127.565.565,0,0,1,.064-.255q.127.127.191.127a1.953,1.953,0,0,0,.191-.35,1.952,1.952,0,0,1,.191-.35.815.815,0,0,0-.509.318,3.346,3.346,0,0,0-.318.509.13.13,0,0,0,.032.1.13.13,0,0,1,.032.1.259.259,0,0,0-.064.191.13.13,0,0,1,.032-.1A.252.252,0,0,0,69.277-501.493Zm-3.311,1.655a.2.2,0,0,0-.127-.191.558.558,0,0,0-.064.159.559.559,0,0,1-.064.159.559.559,0,0,1,.159-.064.559.559,0,0,0,.159-.064q0,.191.064.191h.191q0-.637.382-.764t.382-.255v-.191a.367.367,0,0,1-.255.127H66.73q-.255,0-.35.35A.882.882,0,0,1,65.966-499.837ZM83.54-479.972q.127,0,.191-.446t.127-.955q.064-.637.064-1.4,0-.255-.127-.318-.127.891-.191,1.751t-.064,1.751a.369.369,0,0,0,.064.255.444.444,0,0,1,.032-.191.443.443,0,0,0,.032-.191A.367.367,0,0,0,83.54-479.972ZM71.251-506.586q-.064.064-.064.1t-.064.1q.191,0,.191-.064l-.127-.127a1.91,1.91,0,0,1,.35-.382,2.342,2.342,0,0,1,.478-.318,2.493,2.493,0,0,1,.573-.318,1.117,1.117,0,0,1,.318.127.906.906,0,0,1,.191-.159.344.344,0,0,0,.127-.159.056.056,0,0,0-.064-.064.367.367,0,0,1-.255.127.906.906,0,0,0-.191-.159.344.344,0,0,1-.127-.159q-.446.382-.86.732a4.348,4.348,0,0,0-.732.8A.565.565,0,0,0,71.251-506.586ZM56.416-482.009q-.255.127-.446.764a10.9,10.9,0,0,0-.318,1.464q-.127.828-.191,1.528t-.064.891a4.344,4.344,0,0,0-.159.828q-.032.382-.032.828a.056.056,0,0,0,.064.064,2.234,2.234,0,0,0,.064-.637,1.047,1.047,0,0,0-.032-.255,1.046,1.046,0,0,1-.032-.255,1.415,1.415,0,0,0,.414-.764,9.848,9.848,0,0,0,.255-1.242q.1-.669.127-1.21t.032-.6q.127-.446.318-1.146a5.541,5.541,0,0,0,.191-1.464,1.894,1.894,0,0,0-.191.955Zm-1.337-1.273a2.32,2.32,0,0,1,.032-.382,1.953,1.953,0,0,0,.032-.255q0-.127-.255-.255a9.468,9.468,0,0,0-.669,2.642,11.739,11.739,0,0,1-.287,1.815.252.252,0,0,0,.032.159.737.737,0,0,1,.1.159,10.023,10.023,0,0,1,.318-2.069,5.418,5.418,0,0,1,.7-1.878,5.915,5.915,0,0,1-.318,1.942,6.114,6.114,0,0,0-.318,2.006,1.7,1.7,0,0,1,.446-.318.55.55,0,0,1-.191-.382,1.108,1.108,0,0,1,.191-.446,1.108,1.108,0,0,0,.191-.446h-.191l-.064-.064q.064-.255.127-.478t.127-.478a.056.056,0,0,0,.064.064h.127q.255-.828.446-1.719a.709.709,0,0,0-.318-.064q-.127,0-.1.1T55.079-483.283ZM69.214-498.5a1.127,1.127,0,0,1-.191.35.548.548,0,0,0-.127.35v.064a9.318,9.318,0,0,0-1.305,1.624,12.042,12.042,0,0,0-.86,1.592q-.318.732-.509,1.178t-.318.446l-.764,1.655q-.382.828-.828,1.846a2.141,2.141,0,0,0-.382.828q-.127.318-.255.7a.113.113,0,0,0,.127.127,2.157,2.157,0,0,1,.223-.764q.223-.509.509-1.082t.573-1.082q.287-.509.414-.764,1.019-1.719,1.878-3.311t1.815-3.311a.13.13,0,0,1,.032-.1.13.13,0,0,0,.032-.1.13.13,0,0,0-.032-.1.252.252,0,0,1-.032-.159h.064q.255,0,.764-.573a11.036,11.036,0,0,0,.987-1.305q.478-.732.86-1.337a7.748,7.748,0,0,1,.446-.669q.318-.318.891-.923t.573-.923a2.884,2.884,0,0,0-.891.891,2.438,2.438,0,0,1-.828.828,7.437,7.437,0,0,1-.8.923,2.684,2.684,0,0,0-.6.8,3.408,3.408,0,0,1-.7,1.178A4.7,4.7,0,0,0,69.214-498.5Zm8.914-8.214a2.238,2.238,0,0,0-1.21.414,8.54,8.54,0,0,0-1.21.955q-.573.541-.987,1.019t-.6.669a18.664,18.664,0,0,0-2.738,2.993q-1.273,1.719-2.26,3.311t-1.56,2.738l-.573,1.146q-.764,1.464-1.369,2.9t-1.305,2.9a.847.847,0,0,1-.191.509,1.788,1.788,0,0,1,.35.032,1.479,1.479,0,0,0,.287.032,7.158,7.158,0,0,0,1.846-.255,6.743,6.743,0,0,1,1.719-.255,9.255,9.255,0,0,0,1.687-.159,6.119,6.119,0,0,1,1.624-.1,1.788,1.788,0,0,1,.35.032,1.477,1.477,0,0,0,.287.032,12.376,12.376,0,0,1,1.369-.159q.6-.032,1.305-.032a8.8,8.8,0,0,1,1.942.223q.987.223,2.006.541a.444.444,0,0,1,.191.032.443.443,0,0,0,.191.032.357.357,0,0,0,.35-.287,2.781,2.781,0,0,0,.127-.6l.064-.637a.569.569,0,0,1,.223-.446q.255-.127.255-.318a.13.13,0,0,0-.032-.1.13.13,0,0,1-.032-.1,1,1,0,0,0-.191.255,1,1,0,0,1-.191.255q0-.255.032-.86t.159-.6a.709.709,0,0,1,.064.318.374.374,0,0,0,.191.318v-.127a1.789,1.789,0,0,1,.032-.35,1.788,1.788,0,0,0,.032-.35.709.709,0,0,0-.064-.318q-.127.127-.159.064t-.159.064a2.321,2.321,0,0,1,.032-.382,2.741,2.741,0,0,0,.032-.446.709.709,0,0,0-.064-.318q.255.064.191.35a.357.357,0,0,0,.127.414,2.076,2.076,0,0,0,.032-.318q.032-.382.1-.382.127,0,.127.159v.287a.678.678,0,0,0,.127-.478v-.541q-.127.127-.127.191a.183.183,0,0,1-.064.127q0-.255-.191-.255a.432.432,0,0,1-.318-.127q0-.191.127-.191a.283.283,0,0,1,.127.032.282.282,0,0,0,.127.032.709.709,0,0,1,.064-.318.489.489,0,0,1-.191.064.489.489,0,0,0-.191.064.565.565,0,0,1-.064-.255.977.977,0,0,1,.127-.382q.191.255.318.255.255,0,.255-.191v-.382a1.466,1.466,0,0,1-.191.382.565.565,0,0,1-.064-.255.565.565,0,0,1,.064-.255.565.565,0,0,0,.064-.255q-.064-.318-.1-.541t-.1-.541a12.435,12.435,0,0,1,.191-2.165.294.294,0,0,1-.191-.318.709.709,0,0,1,.064-.318.709.709,0,0,0,.064-.318,1.116,1.116,0,0,1-.127-.318q0-.127.1-.127a.216.216,0,0,0,.159-.064,3.394,3.394,0,0,1-.064-.764q-.127.127-.191.127a4.715,4.715,0,0,0-.1-1.082,3.7,3.7,0,0,1-.1-.891.782.782,0,0,1,.064-.287.782.782,0,0,0,.064-.287,1.026,1.026,0,0,0-.127-.446,1.13,1.13,0,0,1-.127-.509.113.113,0,0,0,.127-.127,7.067,7.067,0,0,0-.1-.891,9.152,9.152,0,0,0-.287-1.273,8.267,8.267,0,0,0-.414-1.114q-.223-.478-.478-.478a1.894,1.894,0,0,1-.191.255l-.064-.127a2.627,2.627,0,0,1-.35.127Q78.255-506.841,78.127-506.714Zm-21.2,26.869q-.064.064,0,.032t.064.287a7.107,7.107,0,0,1-.255,1.751,6.928,6.928,0,0,0-.255,1.687.846.846,0,0,0,.064.446q.127-.509.287-1.21a5.576,5.576,0,0,0,.159-1.21v-.191a6.391,6.391,0,0,1,.255-1.687q.255-.923.382-1.369a.056.056,0,0,1-.064-.064q-.064,0-.064-.032t-.064-.032q-.064.318-.127.669a5.348,5.348,0,0,1-.191.732l-.382-.191a1.06,1.06,0,0,0,.382-.7v-.127a2.764,2.764,0,0,1,.191-.86,5.217,5.217,0,0,0,.255-.987,1.745,1.745,0,0,0-.223-.1.627.627,0,0,1-.223-.159,2.068,2.068,0,0,1-.159.509.985.985,0,0,0-.1.446.259.259,0,0,0,.064.191,2.76,2.76,0,0,1-.1.414q-.1.35-.191.732t-.159.7l-.064.318a1.117,1.117,0,0,1,.127.318,1.4,1.4,0,0,1-.191.382,1.089,1.089,0,0,0-.191.509.183.183,0,0,0,.064.127.2.2,0,0,0,.127-.191q0-.127.191-.191a3.25,3.25,0,0,0-.159.732,3.251,3.251,0,0,1-.159.732q0,.064.032.064t.032.064q.191,0,.255-.6t.127-.923v-.318q0-.191-.064-.191a.563.563,0,0,0,.159-.255A.563.563,0,0,1,56.925-479.844Zm24.641-14.2a.113.113,0,0,0,.127-.127v-.191q0-2.993-.318-6.4a20.125,20.125,0,0,0-1.464-6.081.169.169,0,0,0-.191-.191,3.871,3.871,0,0,0,.414,1.687,3.42,3.42,0,0,1,.414,1.369,10.305,10.305,0,0,1,.287,1.528q.1.828.191,1.592t.159,1.369a2.017,2.017,0,0,0,.191.8,1.19,1.19,0,0,0-.1.637q.032.382.032.764a1.092,1.092,0,0,0,.064.446,1.093,1.093,0,0,1,.064.446,2.118,2.118,0,0,0-.1.828q.032.446.032.828A.988.988,0,0,0,81.566-494.043Zm-22.731,7.768a1.784,1.784,0,0,0,.7-1.21,6.047,6.047,0,0,1,.318-1.146q.127-.318.287-.637l.287-.573a.259.259,0,0,1-.064-.191.305.305,0,0,1,.1-.223.306.306,0,0,0,.1-.223v-.191a11.371,11.371,0,0,0-.509,1.019q-.255.573-.446,1.051t-.287.764q-.1.287-.032.159-.127.318-.287.7A1.837,1.837,0,0,0,58.835-486.275Zm-1.082-.828a.726.726,0,0,0,.255-.382q.127-.318.287-.7t.287-.7a.726.726,0,0,1,.255-.382.283.283,0,0,0-.032-.127.443.443,0,0,1-.032-.191,3.586,3.586,0,0,0,.223-.573,1.355,1.355,0,0,1,.35-.573.259.259,0,0,1-.064-.191.392.392,0,0,1,.064-.223.392.392,0,0,0,.064-.223v-.191a3.836,3.836,0,0,0-.891,1.687l-.446,1.56q-.127.318-.223.6A1.9,1.9,0,0,0,57.753-487.1ZM84.176-490.8q-.064,1.273-.127,2.579t-.127,2.579v.064a.183.183,0,0,0,.127.064q0-1.464.064-2.642T84.176-490.8Zm-17.51-13.371.064.064.255-.255a.369.369,0,0,1,.255.064q.127-.127.127-.191t.127-.191q-.191-.064-.191-.191t.509-.414q.509-.287.509-.414a.252.252,0,0,0-.159.032.13.13,0,0,1-.1.032v-.191a1.569,1.569,0,0,0-1.082.923A2.231,2.231,0,0,1,66.667-504.167Zm-5.221,8.723a.056.056,0,0,1-.064-.064.964.964,0,0,0-.478.7,1.573,1.573,0,0,1-.6.891v.191a.685.685,0,0,1-.127.382.905.905,0,0,0-.127.509,9.3,9.3,0,0,0,.669-1.019q.287-.509.414-.509-.255-.127-.191-.127.127-.255.255-.478T61.446-495.444ZM53.932-473.8a9.3,9.3,0,0,0,.1-1.019q.032-.637.064-1.21a6.662,6.662,0,0,1,.127-1.019q.1-.446.287-.509-.191-.191-.191-.286v-.35a6.385,6.385,0,0,0-.159.669q-.1.478-.159,1.051t-.1,1.178q-.032.6-.032,1.051a1.046,1.046,0,0,0,.032.255A.871.871,0,0,1,53.932-473.8Zm29.734-12.671H83.54q-.255,0-.223.446t.032.637h.191a.519.519,0,0,1-.127.382.169.169,0,0,0,.191.191,1.789,1.789,0,0,1,.032-.35,1.475,1.475,0,0,0,.032-.287.252.252,0,0,0-.032-.159.252.252,0,0,1-.032-.159.706.706,0,0,1,.032-.223.705.705,0,0,0,.032-.223Zm-.382,3.566a2.563,2.563,0,0,1,.064.7.432.432,0,0,0-.127.318.519.519,0,0,0,.127.382,2.005,2.005,0,0,0,.1-.8,1.619,1.619,0,0,1,.1-.732ZM62.719-495.38a1.055,1.055,0,0,0,.6-.6,2.14,2.14,0,0,0,.223-.6q0-.064-.191-.191-.127.318-.255.732A1.584,1.584,0,0,1,62.719-495.38Zm18.847,4.011q-.127.064-.127.478t0,.732q0,.318.127.382Zm-23.94,9.614a2,2,0,0,0,.255-.637,3.178,3.178,0,0,0,.064-.382q-.255,0-.287.35a2.368,2.368,0,0,1-.159.669ZM68.577-500.41q.509-.318.509-.637a.13.13,0,0,0-.032-.1.13.13,0,0,1-.032-.1,4.45,4.45,0,0,0-.509.573.252.252,0,0,0,.032.159A.13.13,0,0,1,68.577-500.41Zm-13.944,21.9a.259.259,0,0,0,.064-.191.571.571,0,0,0-.1-.287.571.571,0,0,1-.1-.287,1.142,1.142,0,0,0-.191.573.369.369,0,0,0,.064.255.056.056,0,0,0,.064-.064.183.183,0,0,1,.064-.127ZM69.85-507.35a.056.056,0,0,1-.064-.064,6.352,6.352,0,0,0-.637.573l-.064-.064-.127.127.191.191a.7.7,0,0,1,.35-.35A.7.7,0,0,0,69.85-507.35Zm-1.592,9.232a.676.676,0,0,0-.414.382,1.622,1.622,0,0,0-.1.573A4.133,4.133,0,0,0,68.258-498.118Zm-2.483,4.266a1.09,1.09,0,0,0,.446-.478,1.4,1.4,0,0,0,.191-.669q-.127.191-.35.541A2.159,2.159,0,0,0,65.775-493.852Zm-6.24,1.91a.58.58,0,0,0,.318-.318.977.977,0,0,0,.127-.382v-.127q-.382.127-.35.35A.807.807,0,0,1,59.536-491.942Zm22.03-1.337a1.9,1.9,0,0,0-.1.764q.032.382.032.764a.2.2,0,0,0,.127-.191v-1.146A.489.489,0,0,0,81.566-493.279ZM74.18-512.126h.191a2.365,2.365,0,0,0,.573-.064,4.5,4.5,0,0,0,.573-.191,3.575,3.575,0,0,0-.7.064A3.627,3.627,0,0,0,74.18-512.126ZM61.509-480.99a6.755,6.755,0,0,0-.382,1.4,1.979,1.979,0,0,0,.255-.669Q61.446-480.608,61.509-480.99Zm3.693-13.88q-.318.191-.318.382v.127l-.318.318a.688.688,0,0,0,.509-.191.183.183,0,0,1-.064-.127.305.305,0,0,1,.1-.223A.389.389,0,0,0,65.2-494.871Zm-2.037-3.884a1.932,1.932,0,0,0,.287-.414q.159-.286.287-.541A1.287,1.287,0,0,0,63.165-498.755Zm4.2.255q.127-.191.255-.35a1.07,1.07,0,0,0,.191-.414.617.617,0,0,0-.446.573Zm-9.1,8.15a1.994,1.994,0,0,0-.446.955.369.369,0,0,0,.064.255,5.032,5.032,0,0,1,.159-.6Q58.135-490.032,58.262-490.35Zm23.176,2.483a2.334,2.334,0,0,0-.159.637q-.032.318-.032.382t.191.255Zm-18.465-6.367a1.313,1.313,0,0,0-.382.509,1.5,1.5,0,0,0-.191.637,3.605,3.605,0,0,1,.287-.573A3.608,3.608,0,0,0,62.974-494.234Zm8.659-8.659a3.908,3.908,0,0,0-.414.35.913.913,0,0,0-.223.478A1.108,1.108,0,0,0,71.633-502.893ZM81.5-489.522a.546.546,0,0,0-.1.287,3.146,3.146,0,0,0-.032.446,1.977,1.977,0,0,0,.032.382q.032.159.032.1a.183.183,0,0,0,.064.127,1.475,1.475,0,0,1,.032-.287,1.788,1.788,0,0,0,.032-.35,2,2,0,0,0-.032-.318A2.318,2.318,0,0,1,81.5-489.522Zm2.611-5.794h.064q0-.191-.032-.764t-.159-.573a3.4,3.4,0,0,1,.064.669A3.4,3.4,0,0,0,84.113-495.316Zm-23.749,6.94a.734.734,0,0,0-.255.509.13.13,0,0,0,.032.1.252.252,0,0,1,.032.159,1.226,1.226,0,0,0,.255-.573.13.13,0,0,0-.032-.1A.13.13,0,0,1,60.363-488.376ZM70.1-500.792q-.064,0-.064-.127a2.39,2.39,0,0,1-.255.223,2.393,2.393,0,0,0-.255.223.369.369,0,0,1,.064.255.92.92,0,0,0,.287-.286A1.478,1.478,0,0,1,70.1-500.792Zm13.88,15.6a1.336,1.336,0,0,0-.191.7.225.225,0,0,0,.255.255.369.369,0,0,1-.064-.255.443.443,0,0,1,.032-.191.443.443,0,0,0,.032-.191.252.252,0,0,0-.032-.159A.252.252,0,0,1,83.985-485.193ZM55.97-474.432a2.234,2.234,0,0,0-.064.637.513.513,0,0,0,.255-.382Q56.161-474.241,55.97-474.432Zm9.041-17.828.318-.478a.987.987,0,0,0,.191-.541,3.47,3.47,0,0,0-.255.287A2.089,2.089,0,0,0,65.011-492.26Zm-2.292-7.386q-.382.127-.382.446a.113.113,0,0,0,.127.127.416.416,0,0,1,.191-.191.2.2,0,0,0,.127-.191A.259.259,0,0,0,62.719-499.646Zm5.221,0,.064.064a.451.451,0,0,0,.318-.446l-.127-.127a.563.563,0,0,0-.159.255A1.244,1.244,0,0,1,67.94-499.646Zm-5.476,1.974a1.39,1.39,0,0,0,.509-.828,3.183,3.183,0,0,0-.318.446Zm-.318.573q-.127.191-.223.318a2.619,2.619,0,0,0-.223.382q.446-.191.446-.509Zm-1.019,7.322q-.318,0-.35.064a2.975,2.975,0,0,0-.1.509A.936.936,0,0,1,61.127-489.777Zm-5.157,15.09q.191-.064.191-.191a1.117,1.117,0,0,0-.127-.318l-.064.127v.382Zm7.832-21.2a.307.307,0,0,0,.223-.255,1.131,1.131,0,0,1,.1-.318.468.468,0,0,0-.223.287A1.136,1.136,0,0,1,63.8-495.889Zm-.382,8.85q.255-.191.255-.318a.565.565,0,0,0-.064-.255.632.632,0,0,0-.064.287A.4.4,0,0,1,63.419-487.039Zm20.693-7.195a.443.443,0,0,1,.032-.191.443.443,0,0,0,.032-.191q0-.255-.127-.318A3.022,3.022,0,0,1,84.113-494.234Zm-19.865-2.547q-.127.127.318.127.064-.064.064-.1t.127-.1A1.324,1.324,0,0,0,64.247-496.781ZM87.423-485.32a.887.887,0,0,0-.064.382.369.369,0,0,0,.064.255.443.443,0,0,1,.032-.191.443.443,0,0,0,.032-.191A.565.565,0,0,0,87.423-485.32Zm-3.82-3.438q-.064,0-.064.032t-.064.032v.255a.25.25,0,0,0,.191.255A1.931,1.931,0,0,1,83.6-488.758Zm-10.315-22.6.064.064a.554.554,0,0,1,.287-.159,1,1,0,0,0,.35-.159h-.127A.792.792,0,0,0,73.288-511.362ZM61.828-496.208a.056.056,0,0,1-.064-.064.671.671,0,0,0-.255.573,1,1,0,0,0,.191-.255ZM71-505.949q.446,0,.446-.382a1.543,1.543,0,0,1-.223.191A1.539,1.539,0,0,0,71-505.949Zm.509,23.622q-.127,0-.478.032t-.35.159a1.872,1.872,0,0,1,.446-.064A.685.685,0,0,0,71.506-482.328Zm-5.157-14.453a.429.429,0,0,0-.382.191.283.283,0,0,1,.127.032.283.283,0,0,0,.127.032ZM86.659-478q-.127,0-.127.223v.414q.127,0,.127-.255Zm-28.143-7.959a.113.113,0,0,0-.127-.127.392.392,0,0,0-.223.064,2.082,2.082,0,0,1-.223.127,1.474,1.474,0,0,0,.287-.032A1.477,1.477,0,0,1,58.517-485.957Zm22.03-4.775q.127,0,.127-.255a.367.367,0,0,0-.127-.255Zm2.993,12.48a.056.056,0,0,1-.064-.064l-.127.255.127.255A1.411,1.411,0,0,0,83.54-478.253Zm-29.862,1.273a.369.369,0,0,0,.064-.255v-.191a.257.257,0,0,0-.127.255A.259.259,0,0,0,53.678-476.979Zm3.948-9.3q-.318.127-.287.255a.359.359,0,0,1-.032.255q.127,0,.159-.191A.57.57,0,0,1,57.625-486.275Zm14.835-18.783a.709.709,0,0,0-.318-.064.252.252,0,0,1-.032.159.252.252,0,0,0-.032.159.739.739,0,0,0,.191-.127A.741.741,0,0,1,72.461-505.058Zm-3.5,1.783-.064-.064a1.137,1.137,0,0,0-.318.318l.064.064Zm-3.184,7.513a.113.113,0,0,0,.127-.127q0-.127-.191-.127l-.064.064Q65.648-495.762,65.775-495.762Zm18.4,3.247q.064.064.064-.191a.519.519,0,0,0-.127-.382A1.581,1.581,0,0,0,84.176-492.515Zm-31.071,9.3a.294.294,0,0,0,.191.318q.064,0,.191-.127Zm3.184,7q0-.318-.064-.318l-.127.127Q56.1-476.279,56.288-476.215Zm12.161-22.158a.056.056,0,0,0,.064.064.689.689,0,0,1,.255-.318Q68.449-498.627,68.449-498.373Zm17.892,23.686v-.382a.259.259,0,0,0-.064.191A.259.259,0,0,0,86.341-474.687ZM63.1-487.8a.183.183,0,0,1-.127-.064.513.513,0,0,0-.064.223.513.513,0,0,1-.064.223A2.708,2.708,0,0,0,63.1-487.8Zm-6.24,1.146.127-.127a.13.13,0,0,0-.032-.1.13.13,0,0,1-.032-.1.283.283,0,0,1-.032.127A.443.443,0,0,0,56.861-486.657Zm26.933-4.966a.887.887,0,0,0-.064-.382l-.127.255Q83.6-491.687,83.794-491.624Zm-19.165.191h-.064a.147.147,0,0,1-.1.159q-.1.032-.1.1l.127.064A.432.432,0,0,0,64.629-491.432Zm15.6,2.356a.367.367,0,0,0-.127.255.259.259,0,0,0,.064.191.705.705,0,0,1,.032-.223A.7.7,0,0,0,80.229-489.077Zm-22.6,2.419a.056.056,0,0,1,.064.064.13.13,0,0,1,.032-.1.13.13,0,0,0,.032-.1l-.127-.127Zm-1.846,10.506h.127a.13.13,0,0,1,.032-.1.252.252,0,0,0,.032-.159.183.183,0,0,1-.064-.127Zm27.57.255v-.382a.367.367,0,0,0-.127.255Q83.221-475.96,83.349-475.9Zm-29.671.191q-.191,0-.191.064l.127.127A.259.259,0,0,1,53.678-475.706Zm-.637.828a.183.183,0,0,1-.127.064q-.064,0-.064.127,0,.064.127.191a.706.706,0,0,1,.032-.223A.524.524,0,0,0,53.041-474.878Zm33.746,1.019q-.191.064-.191.446a.349.349,0,0,0,.127-.223A.513.513,0,0,1,86.787-473.859Zm-30.371,1.21q-.127,0-.127.159v.287A1.026,1.026,0,0,0,56.416-472.65Zm17.637-38.075a.056.056,0,0,1,.064.064l.382-.191A1.026,1.026,0,0,0,74.053-510.725Zm5.985,22.476q.191-.064.191-.127a.183.183,0,0,1-.127-.064q0,.064-.032.064T80.038-488.249Zm-18.083.255q-.127.127-.127.191,0,.127.191.127a.252.252,0,0,0-.032-.159A.252.252,0,0,1,61.955-487.994Zm18.592-.891v0Zm-8.214-18.337a.1.1,0,0,1-.064.1.345.345,0,0,0-.127.159q.191-.064.191-.127ZM52.977-481.245H53.1v-.064a.259.259,0,0,0-.064-.191A.369.369,0,0,1,52.977-481.245Zm30.435,3.757q-.127,0-.1.127a.87.87,0,0,1,.032.191A.709.709,0,0,0,83.412-477.489Zm-11.079-32.09q.318,0,.318-.191A.521.521,0,0,0,72.333-509.579ZM53.041-476.024q-.127,0-.127.255.127.064.127-.064Zm7.386,0a.887.887,0,0,0,.064-.382q-.127,0-.1.127A1.047,1.047,0,0,1,60.427-476.024ZM72.27-505.313q.064.064.318-.255A1.367,1.367,0,0,0,72.27-505.313Zm-8.85,10.251a.056.056,0,0,0-.064-.064.367.367,0,0,0-.127.255v.127A.521.521,0,0,0,63.419-495.062Zm-9.487,15.727-.127.255.064.064a.113.113,0,0,0,.127-.127.13.13,0,0,0-.032-.1A.13.13,0,0,1,53.932-479.335Zm11.333-15.918q.191-.064.191-.127l-.064-.064Q65.33-495.444,65.266-495.253Zm4.966-10.124a.225.225,0,0,0,.255-.255q-.127.127-.159.127T70.232-505.376Zm.637,2.8h-.064a.26.26,0,0,0,.191.064l.064-.064ZM82.9-476.406q.127-.064.1-.159a.144.144,0,0,1,.032-.159Q82.9-476.724,82.9-476.406Zm-29.925-.255q.064,0,.064.032t.064.032a.871.871,0,0,1,.032-.191q.032-.127-.1-.127a.252.252,0,0,1-.032.159A.13.13,0,0,0,52.977-476.661ZM59.6-491.369q.191,0,.191-.382A1.4,1.4,0,0,0,59.6-491.369Zm23.495,12.8.064.064a.369.369,0,0,0,.064-.255q-.127,0-.1.064A.1.1,0,0,1,83.094-478.571Zm.255-1.337a.113.113,0,0,0-.127-.127h-.064q-.064.064,0,.064a.056.056,0,0,0,.064.064ZM67.876-498.373l.191-.191L68-498.627A.367.367,0,0,0,67.876-498.373Zm-12.8,17v.064a.13.13,0,0,1,.032-.1.13.13,0,0,0,.032-.1Q55.079-481.5,55.079-481.372Zm-1.4,4.775v0ZM71.7-509.006l-.064-.064q-.191.191-.191.255a.5.5,0,0,1,.127-.1A.5.5,0,0,0,71.7-509.006Zm8.85,14.517q.127,0,.127-.255A.367.367,0,0,0,80.547-494.489Zm-15.663,2.547q-.064,0-.127.191Q64.884-491.751,64.884-491.942Zm3.757-11.97H68.7a.113.113,0,0,0,.127-.127v-.064ZM56.479-474.5q-.064,0-.064.191Q56.479-474.3,56.479-474.5Zm26.615-3.12v0ZM68.067-502.957a.183.183,0,0,1,.064.127q.064-.064.1-.064t.1-.064a.056.056,0,0,1-.064-.064A.259.259,0,0,1,68.067-502.957Zm-6.112,15.6q-.127,0-.127.191Q61.955-487.167,61.955-487.358Zm-4.139-1.655a.056.056,0,0,1-.064-.064.183.183,0,0,0-.064.127.183.183,0,0,1-.064.127Q57.689-488.822,57.816-489.013ZM70.36-500.665a.056.056,0,0,0,.064.064l.127-.127v-.064l-.064-.064Q70.487-500.792,70.36-500.665ZM86.978-475.9l-.064-.064a.369.369,0,0,1-.064.255Q86.978-475.706,86.978-475.9Zm-30.944-1.21-.064-.064v.191ZM62.21-497.29a.183.183,0,0,0,.127.064.13.13,0,0,1,.032-.1.13.13,0,0,0,.032-.1Q62.337-497.418,62.21-497.29Zm10.506-13.817a.184.184,0,0,1,.064.127q.127-.127.159-.127t.032-.127A.367.367,0,0,1,72.715-511.107Zm-14.39,29.734-.064.064.064.064Zm12.48-24.2-.064-.064q0,.191-.064.191Zm9.742,15.217q0,.191.064.191a.13.13,0,0,0-.032-.1A.13.13,0,0,1,80.547-490.35Zm-15.854-3.5q-.127,0-.127.255.064.064.064-.064A.259.259,0,0,1,64.693-493.852ZM64.12-490.6l.064.064q.127-.127.127-.191a.056.056,0,0,0-.064-.064.1.1,0,0,1-.064.1A.1.1,0,0,0,64.12-490.6Zm-7,3.311.064.064q0-.255-.064-.255Zm2.738.382q-.064,0-.064.127v.064Q59.854-486.721,59.854-486.912Zm20.693-11.206v.255a.056.056,0,0,1,.064-.064A.259.259,0,0,0,80.547-498.118Zm.127,4.966q-.064,0-.064.127Q80.674-493.024,80.674-493.152Zm-25.532,18.21h.127a.13.13,0,0,0-.032-.1.252.252,0,0,1-.032-.159.252.252,0,0,1-.032.159A.13.13,0,0,0,55.142-474.942Zm28.015.509.064-.064-.064-.064-.064.064A.056.056,0,0,0,83.158-474.432ZM72.079-509.324v-.127q0,.064-.032.064t-.032.064ZM68.64-506.2v.064q.064,0,.191-.127a.13.13,0,0,0-.1.032A.13.13,0,0,1,68.64-506.2Zm3.884,2.228.064.064a.183.183,0,0,1,.127-.064.056.056,0,0,0-.064-.064A.183.183,0,0,1,72.524-503.976Zm-4.584,1.846q.255,0,.127-.127Zm-.764.637q.191,0,.127-.064t0-.064Zm2.356.064q.064,0,.191-.191-.191,0-.127.032T69.532-501.429Zm1.019.191v-.191h.064l-.064-.064-.064.064v.064A.183.183,0,0,0,70.551-501.238Zm-3.184.191h-.191l.064.064A.184.184,0,0,0,67.367-501.047Zm4.775-2.483-.127.127A.113.113,0,0,0,72.142-503.53ZM52.914-475.26q0-.064.064,0t.064-.127l-.064-.064A.489.489,0,0,0,52.914-475.26Zm30.435-1.464v-.064q0,.127-.064.127l.064.064Zm-11.4-5.73q0,.064.127.064a.056.056,0,0,0-.064-.064Zm12.225-11.461q-.064,0-.064.191Q84.176-493.725,84.176-493.916ZM79.656-480.8a.113.113,0,0,0-.127.127h.064Q79.528-480.672,79.656-480.8Zm3.884-5.985-.127.127h.064a.183.183,0,0,0,.127-.064A.056.056,0,0,1,83.54-486.785Zm-3.884,5.73.064-.064q0-.127-.1-.1t-.032.032Zm-18.592-9.3q0,.064.127.064a.056.056,0,0,0-.064-.064Zm22.285,10.76-.127-.064v.127q.064,0,.064-.032T83.349-479.59Zm0-1.719v0Zm2.865,7.959v0Zm-30.562-8.723a.056.056,0,0,0,.064.064q0-.127.064-.127l-.064-.064A.183.183,0,0,0,55.652-482.073Zm6.494-10.315h-.127l.064.064Zm-5.985,14.517q-.127,0-.127.064A.183.183,0,0,0,56.161-477.871Zm8.723-17.573h-.127a.056.056,0,0,1,.064.064Zm15.663,5.858v0Zm-11.715-9.3v-.127q-.064,0-.064.127Zm15.345,7.195a.056.056,0,0,0,.064.064Zm-3.629,3.247v0Zm-27.57,7.513-.064.064q0,.064.127.064Zm13.88-19.42v-.064a.13.13,0,0,0-.1.032.13.13,0,0,1-.1.032.056.056,0,0,1,.064.064Q66.73-500.346,66.858-500.346ZM83.6-478.953a.056.056,0,0,0-.064-.064v.127A.056.056,0,0,0,83.6-478.953ZM69.532-500.792q-.064,0-.064.127A.183.183,0,0,0,69.532-500.792Zm-3.948,4.011h-.064a.08.08,0,0,0,0,.127A.183.183,0,0,0,65.584-496.781ZM65.2-503.53v-.064q-.191.191-.127.191Zm4.33-.955q0-.064-.127-.064,0,.064.032.064t.032.064Zm-9.36,23.113a.183.183,0,0,0-.127-.064v.127A.183.183,0,0,1,60.172-481.372Zm6.049-16.363q.127,0,.1-.1t-.032-.032Q66.221-497.863,66.221-497.736Zm-2.356-6.558a1.5,1.5,0,0,1-.191.637,5.535,5.535,0,0,1-.414.7q-.223.318-.382.541t-.159.159a3.4,3.4,0,0,0-.7.891q-.382.637-.7,1.305t-.541,1.146q-.223.478-.159.414-.382.764-.86,1.592t-.891,1.56q-.414.732-.7,1.305a2.209,2.209,0,0,0-.287.828.183.183,0,0,0,.064.127,1.987,1.987,0,0,0-.7,1.178,3.963,3.963,0,0,1-.318.987.741.741,0,0,1-.127.191.741.741,0,0,0-.127.191.283.283,0,0,0,.032.127.283.283,0,0,1,.032.127,2.29,2.29,0,0,1-.35.955,2.29,2.29,0,0,0-.35.955,1.026,1.026,0,0,1-.127-.446,4.545,4.545,0,0,1,.287-1.242q.287-.86.637-1.719t.7-1.528q.35-.669.478-.669a11.3,11.3,0,0,1,.923-2.2q.6-1.114,1.051-1.878.7-1.146,1.273-2.165t1.019-1.974a4.282,4.282,0,0,0,.764-.987,5.063,5.063,0,0,1,.891-1.114Zm.064,0a2.3,2.3,0,0,1,.414-.955,11.161,11.161,0,0,1,.764-.987q.414-.478.764-.86t.478-.509a1.744,1.744,0,0,0,.1-.223,1.747,1.747,0,0,1,.1-.223l-.127.064a2.021,2.021,0,0,0-.573-.127,1.409,1.409,0,0,0,.446-.573.582.582,0,0,1,.446-.382l.191.191q-.191.127-.35.223a1.481,1.481,0,0,0-.287.223.432.432,0,0,1,.127.318,1.318,1.318,0,0,0,.7-.35q.446-.35.923-.8t.86-.86q.382-.414.573-.6a14.678,14.678,0,0,1,2.324-1.528,6.861,6.861,0,0,1,2.515-.828l.127.127a4.611,4.611,0,0,0-1.082.223,5,5,0,0,0-.955.478.13.13,0,0,1-.1-.032.13.13,0,0,0-.1-.032.856.856,0,0,0-.478.223q-.287.223-.573.478t-.478.446q-.191.191-.191.127a2.707,2.707,0,0,0-.573.414q-.318.287-.191.286h-.191a.056.056,0,0,0-.064.064.259.259,0,0,0,.064.191h-.191q-.255,0-.35.318t-.223.318l-.064-.064a.932.932,0,0,0-.637.223,1.578,1.578,0,0,0-.382.478q-.127.255-.255.478t-.255.223q-.191,0-.541.541t-.287.414a5.659,5.659,0,0,0-.573.7l-.637.891a8.742,8.742,0,0,1-.669.828,1.4,1.4,0,0,1-.6.446Zm-7.513,11.333a.259.259,0,0,0,.191.064q-.064.382-.159.764a.866.866,0,0,1-.6.573.738.738,0,0,1,.159.1.738.738,0,0,0,.159.1.147.147,0,0,1-.1.159.147.147,0,0,0-.1.159.056.056,0,0,0,.064.064.706.706,0,0,0,.382-.637q.064-.509.446-.509a3.35,3.35,0,0,0-.509,1.273,1.99,1.99,0,0,1-.509,1.082.259.259,0,0,1-.064-.191.214.214,0,0,1,.1-.191.214.214,0,0,0,.1-.191.305.305,0,0,0-.1-.223.306.306,0,0,1-.1-.223,1.117,1.117,0,0,1,.127-.318.565.565,0,0,0-.255-.064v-.064a.184.184,0,0,0,.064-.127q.064.064-.1.191t-.159.191a2.084,2.084,0,0,0-.127.509.55.55,0,0,0,.191.382l-.064.064a.709.709,0,0,1-.318-.064,1.085,1.085,0,0,1-.159.382.771.771,0,0,0-.1.446v.127a1.687,1.687,0,0,1-.255.828,6.348,6.348,0,0,0-.382.764l-.064-.127q.509-1.4.828-2.579a10.888,10.888,0,0,1,.891-2.26,2.06,2.06,0,0,1,.318-.828,3.675,3.675,0,0,0,.318-.637,2.964,2.964,0,0,1,.287-1.114,9.722,9.722,0,0,1,.637-1.242q.35-.573.573-.955t.159-.318a3.591,3.591,0,0,0,.414-.637,3.591,3.591,0,0,1,.414-.637,1.719,1.719,0,0,1,.223-.7,7.038,7.038,0,0,1,.509-.86q.287-.414.573-.8a5.514,5.514,0,0,1,.414-.509,36.177,36.177,0,0,0-2.929,5.062,11.656,11.656,0,0,0-.891,2.324,13.166,13.166,0,0,1-.573,1.4q-.255.509-.255.382,0,.127.318.318-.446,0-.446.318a.056.056,0,0,0,.064.064q.127,0,.287-.287a1.03,1.03,0,0,0,.159-.414q-.064,0-.064-.127v-.255ZM69.023-511.68q0,.127-.509.6t-1.146,1.082q-.637.6-1.305,1.178a5.237,5.237,0,0,0-.923.955q-.891,1.082-1.687,2.26t-1.687,2.324a1,1,0,0,1-.191.255l-.064-.064a13.6,13.6,0,0,1,1.178-2.165,12.076,12.076,0,0,1,.955-1.21,8.743,8.743,0,0,1,.637-.637,1.417,1.417,0,0,0,.35-.446,3.27,3.27,0,0,1,.7-.86q.509-.478,1.051-.923a9.319,9.319,0,0,0,.923-.86,1.167,1.167,0,0,0,.382-.732,1.28,1.28,0,0,0,.637-.382,1.94,1.94,0,0,1,.637-.446Zm-1.146,1.974a.183.183,0,0,0,.064.127l-.509.509a.563.563,0,0,0-.255-.159.563.563,0,0,1-.255-.159.169.169,0,0,1,.191-.191v.064l.064.127a.6.6,0,0,0,.509-.255q.191-.255.446-.573h-.318a1.666,1.666,0,0,1,.669-.669,3.3,3.3,0,0,0,.732-.478l.127.255.509-.382.509-.382a.877.877,0,0,1-.541.478,5.729,5.729,0,0,0-1.433,1.178l-.255.255Zm.573-.7-.1-.1q.032.032-.032.032v.127q.064,0,.064-.032T68.449-510.406Zm-13.371,23.94q.127-.509.223-1.051a1.563,1.563,0,0,1,.414-.86q.191.064.191.191a1.685,1.685,0,0,1-.191.6,4.8,4.8,0,0,1-.318.6v.127Q55.4-486.594,55.079-486.466Zm3.184-6.176a.252.252,0,0,1,.032-.159.13.13,0,0,0,.032-.1l.064.064Q58.389-492.77,58.262-492.642Zm66.855,2.483a17.673,17.673,0,0,0-2.611,1.21q-.828.509-1.846,1.019-.127-.127-.127-.191a.269.269,0,0,1,.159-.223.56.56,0,0,0,.223-.223.367.367,0,0,0-.255-.127q-.318.382-.509.382a.827.827,0,0,0-.7.255.671.671,0,0,1-.573.255,1.11,1.11,0,0,0-.7.35,1.439,1.439,0,0,1-.7.414,1.31,1.31,0,0,0-.478.191l-.7.382q-.35.191-.637.35l-.287.159a1.385,1.385,0,0,0-.955.414q-.446.414-.573.414a.367.367,0,0,1-.255-.127,3.188,3.188,0,0,1-1.719.573h-.127a1.2,1.2,0,0,0-.382.064,1.047,1.047,0,0,1-.318.064.183.183,0,0,1-.127-.064.555.555,0,0,1,.287-.159.3.3,0,0,0,.223-.223h-.255a.565.565,0,0,0-.255.064.565.565,0,0,1-.255.064.259.259,0,0,1-.191-.064q.318-.191.573-.318l.509-.255v-.064a3.168,3.168,0,0,0-.764.286,1.719,1.719,0,0,1-.7.223.369.369,0,0,0-.255-.064,2.4,2.4,0,0,0-.828.255q-.573.255-.573.382a28.04,28.04,0,0,0,.191,3.279q.191,1.624.446,3.152v.382a.13.13,0,0,1-.032.1.252.252,0,0,0-.032.159q0,.064.191.255a.55.55,0,0,0-.191.382,7.877,7.877,0,0,0,.446,2.388q.446,1.369.764,2.515a8.194,8.194,0,0,0,.509,1.369,8.192,8.192,0,0,1,.509,1.369.367.367,0,0,0,.255-.127q.064,0,.1.159a1.475,1.475,0,0,1,.032.287,1.9,1.9,0,0,1-.191.8.756.756,0,0,1-.764.414.13.13,0,0,1-.1-.032.13.13,0,0,0-.1-.032,1.047,1.047,0,0,0-.318.064,1.2,1.2,0,0,1-.382.064q0-.382-.255-.382h-.127a1.2,1.2,0,0,1-.414-.127q-.287-.127-.637-.286t-.6-.287l-.255-.127a2.471,2.471,0,0,1-.923-.382,2.46,2.46,0,0,0-.86-.382,2.247,2.247,0,0,1-.891-.191q-.446-.191-.828-.318a5.291,5.291,0,0,0-1.21-.287,3.431,3.431,0,0,1-.955-.223.13.13,0,0,1-.1-.032.252.252,0,0,0-.159-.032h-.127a1.046,1.046,0,0,1-.255-.032,1.047,1.047,0,0,0-.255-.032h-.191q-.127,0-.414-.987t-.6-2.165q-.318-1.178-.573-2.2t-.255-1.082a11.263,11.263,0,0,0-.35-1.4,4.6,4.6,0,0,1-.223-1.4.444.444,0,0,1,.032-.191.443.443,0,0,0,.032-.191,2.8,2.8,0,0,1-.223-.923,4.421,4.421,0,0,0-.159-.923,1.13,1.13,0,0,1,.064-.414,1.13,1.13,0,0,0,.064-.414.706.706,0,0,0-.032-.223.706.706,0,0,1-.032-.223v-.064a.367.367,0,0,0-.127-.255.367.367,0,0,1-.127-.255,1.788,1.788,0,0,1,.032-.35,1.789,1.789,0,0,0,.032-.35,6.042,6.042,0,0,0-.1-1.051,5.122,5.122,0,0,1-.1-.8.524.524,0,0,1,.032-.159.706.706,0,0,0,.032-.223v-.509a.516.516,0,0,0-.1-.318.516.516,0,0,1-.1-.318.935.935,0,0,1,.064-.35.935.935,0,0,0,.064-.35,7.463,7.463,0,0,0-.064-.987,7.462,7.462,0,0,1-.064-.987v-.191a2,2,0,0,0-.032-.318,2.319,2.319,0,0,1-.032-.382,1.372,1.372,0,0,1,.1-.541,1.372,1.372,0,0,0,.1-.541.565.565,0,0,0-.064-.255.565.565,0,0,1-.064-.255,1.411,1.411,0,0,1,.064-.446,1.411,1.411,0,0,0,.064-.446.668.668,0,0,0-.1-.35.668.668,0,0,1-.1-.35,4.706,4.706,0,0,1,.1-.923,4.043,4.043,0,0,0,.1-.732,1.411,1.411,0,0,1-.064-.446,2.094,2.094,0,0,1,.064-.509,1.741,1.741,0,0,0,.064-.382.392.392,0,0,0-.064-.223.392.392,0,0,1-.064-.223.548.548,0,0,1,.127-.35.481.481,0,0,0,.127-.287,7.463,7.463,0,0,1,.064-.987,7.464,7.464,0,0,0,.064-.987,1.2,1.2,0,0,0-.1-.478,1.2,1.2,0,0,1-.1-.478,1.791,1.791,0,0,1,.255-.8.819.819,0,0,1,.764-.478.26.26,0,0,1,.191.064.183.183,0,0,0,.127.064,4.72,4.72,0,0,0,.732-.382q.669-.382.987-.573a26.4,26.4,0,0,1,5.6-2.165q2.929-.764,5.921-1.273.382-.127.828-.255a3.027,3.027,0,0,1,.828-.127h.127a15.092,15.092,0,0,0,2.133-.159q1.114-.159,2.069-.286a.305.305,0,0,0,.223-.1.305.305,0,0,1,.223-.1.741.741,0,0,1,.191.127.259.259,0,0,0,.191.064.784.784,0,0,0,.35-.127.784.784,0,0,1,.35-.127,3.088,3.088,0,0,1,.6-.064h.6a22.039,22.039,0,0,1,5.094.573,15.267,15.267,0,0,1,4.712,2.037,5.923,5.923,0,0,1,1.242,1.051,5.923,5.923,0,0,0,1.242,1.051q.637.382,1.592,1.019t1.878,1.369a15.609,15.609,0,0,1,1.592,1.433,1.943,1.943,0,0,1,.669,1.21.13.13,0,0,1-.032.1.13.13,0,0,0-.032.1,2.917,2.917,0,0,0-.732,1.305q-.223.8-.478,1.655a9.319,9.319,0,0,1-.669,1.655,3.638,3.638,0,0,1-1.305,1.369,2.085,2.085,0,0,0-.255.318,2.086,2.086,0,0,1-.255.318q-.573.573-1.114,1.019a7.89,7.89,0,0,1-1.242.828v-.064a.588.588,0,0,1,.382-.637.588.588,0,0,0,.382-.637.959.959,0,0,1,.35-.6q.35-.35.414-.35a1.117,1.117,0,0,1,.318.127,1,1,0,0,1,.191-.255.4.4,0,0,0-.159-.1q-.1-.032-.1-.1,0-.127.287-.255a1.2,1.2,0,0,0,.478-.382q-.127,0-.127-.191a.367.367,0,0,1,.127-.255q-.064,0-.064.191h-.064q-.127,0-.446.382t-.509.382a3.256,3.256,0,0,1,.509-.732q.318-.35.573-.669h.191q.064,0,.255-.255-.064,0-.191-.127a.259.259,0,0,1,.064-.191.183.183,0,0,0,.064-.127,1.027,1.027,0,0,1-.127-.446.657.657,0,0,1-.509.35,1.634,1.634,0,0,0-.573.159,1.432,1.432,0,0,1,.414-.86,1.1,1.1,0,0,0,.35-.8v-.127l-.223.287q-.223.287-.478.637t-.478.669a4.037,4.037,0,0,1-.287.382q-.191.255-.318.255a.565.565,0,0,1-.255-.064l.382-.573q-.509,0-.573.35t-.573.35a24.7,24.7,0,0,1-2.037,1.528q-.7.446-.891.573a1.615,1.615,0,0,1-.541.541,1.312,1.312,0,0,1-.6.286.706.706,0,0,1-.223-.032.524.524,0,0,0-.159-.032,1.975,1.975,0,0,0-1.21.637,3.086,3.086,0,0,1-1.21.764q-1.082.573-2.228,1.21t-2.42,1.337a1.047,1.047,0,0,0-.318.064q.064-.191.573-.509t1.114-.669a13.684,13.684,0,0,1,1.242-.637,9.777,9.777,0,0,0,.955-.478q.318-.191.891-.478a1.271,1.271,0,0,0,.7-.669,2.194,2.194,0,0,0-.8.414Q125.18-490.223,125.117-490.159Zm-13.944,1.082q2.037-1.082,4.011-2.069t3.948-2.133q2.228-1.337,4.552-2.833a22.93,22.93,0,0,0,4.107-3.343,9.74,9.74,0,0,0,.7-.8,1.442,1.442,0,0,0,.382-.86q0-.382-.669-.509a6.157,6.157,0,0,0-1.114-.127,35.684,35.684,0,0,0-5.571.382,18.778,18.778,0,0,0-2.833.573,5.915,5.915,0,0,1-1.051.287q-.541.1-1.051.159a22.416,22.416,0,0,0-4.011,1.051,24.711,24.711,0,0,0-3.438,1.5.931.931,0,0,0-.573.987,3.97,3.97,0,0,1-.064,1.242q0,1.846-.064,3.757t-.064,3.757q0,.191.127.191a.785.785,0,0,0,.446-.127.343.343,0,0,1-.318.223q-.255.032-.255.35a7.047,7.047,0,0,0,1.528-.541,5.927,5.927,0,0,0,1.4-.86A.367.367,0,0,0,111.173-489.077Zm17.064-3.184a7.207,7.207,0,0,1-.923.509,1.162,1.162,0,0,0-.669.637.13.13,0,0,1,.1.032.13.13,0,0,0,.1.032.979.979,0,0,0,.732-.414q.35-.414.478-.414Q128.237-491.942,128.237-492.26Zm6.622-4.075h-.191q-.255,0-.509.446a3.9,3.9,0,0,1-.318.509.683.683,0,0,0,.637-.318Zm-8.978,5.03a7.606,7.606,0,0,0,1.242-.7,12.79,12.79,0,0,0,1.114-.891,1.088,1.088,0,0,0-.509.191q-.318.191-.7.446t-.7.509A2.174,2.174,0,0,0,125.881-491.305Zm-4.648,2.674a.627.627,0,0,1,.223-.159,1.745,1.745,0,0,0,.223-.1.709.709,0,0,0-.318-.064q-.127,0-.127.191Zm15.281-6.94a.259.259,0,0,0,.191.064q.127,0,.127-.191v-.064a.736.736,0,0,0-.159.1A.739.739,0,0,1,136.514-495.571Zm-4.966.955a.4.4,0,0,0,.255-.318Q131.548-494.807,131.548-494.616Zm-11.333-13.689q0-.064-.127-.064a.367.367,0,0,0-.255.127A.886.886,0,0,0,120.214-508.305Zm-11.4,29.352q-.127.127-.127.191t.127.191Zm19.993-14.453.064.064a.2.2,0,0,0,.127-.191v-.127q-.127.127-.127.159T128.81-493.406Zm-20.247,13.053H108.5q0,.318.127.318a.524.524,0,0,0-.032-.159A.523.523,0,0,1,108.562-480.354Zm4.011-9.169h.191q0-.064-.032-.064t-.032-.064Zm2.738-1.4.064.064.064-.064-.064-.064A.056.056,0,0,0,115.311-490.923Zm-.7,4.584v-.127q-.127.127-.127.191Q114.611-486.275,114.611-486.339Zm-1.783.764.064-.064-.064-.064Zm3.311-1.528h-.127l.064.064A.056.056,0,0,0,116.139-487.1Zm9.1-3.757v-.064l-.127.064v.064A.184.184,0,0,1,125.244-490.859Zm-8.214,4.648q0-.255.573-.509a2.264,2.264,0,0,1,.637-.191h.064a.649.649,0,0,0,.541-.318.7.7,0,0,1,.6-.318q0,.064.127.064t.287-.223a1.042,1.042,0,0,1,.478-.35q0,.191-.318.446a4.854,4.854,0,0,1-.732.478q-.414.223-.86.414t-.637.255A1.185,1.185,0,0,1,117.031-486.211Zm-2.483,1.273a1.7,1.7,0,0,1-.828.318.974.974,0,0,1,.7-.318Zm6.049-2.356a.349.349,0,0,1-.223.127.513.513,0,0,0-.223.064q.064-.255.446-.255Zm-5.985,2.865a.294.294,0,0,1,.318-.191A.374.374,0,0,1,114.611-484.429Zm2.483-1.21q0-.127.191-.127h.127a.736.736,0,0,0-.159.1.739.739,0,0,1-.159.1Zm16.618-6.494a1,1,0,0,0,.191-.255v.127a.169.169,0,0,1-.191.191Zm-1.146,1.019q0,.127-.382.255A.513.513,0,0,1,132.566-491.114Zm2.42-3.438q0,.064-.127.191h-.064a.183.183,0,0,0,.064-.127.183.183,0,0,1,.064-.127A.056.056,0,0,1,134.986-494.552Zm-2.42,3.438.255-.255A.225.225,0,0,1,132.566-491.114Zm-13.244,4.457a.259.259,0,0,0-.191.064q-.064-.064.191-.191Zm-1.273.573a.367.367,0,0,1-.255.127v-.064q.064,0,.191-.127Zm1.719-.637q-.255,0-.191-.127Q119.768-486.848,119.768-486.721Zm13.562-4.457.127-.127a.056.056,0,0,0,.064.064A.259.259,0,0,1,133.33-491.178Zm-22.794,6.813a.183.183,0,0,0-.127-.064l.064-.064a.056.056,0,0,1,.064.064Zm-.637.064.127-.064.064.064q-.127,0-.127.064A.056.056,0,0,0,109.9-484.3Zm24.641-9.805v.127h-.064A.183.183,0,0,1,134.54-494.107Zm-8.978,4.521v.064a.056.056,0,0,1-.064-.064Zm-7.195,3.375v-.064h.064Zm9.869-6.049a.669.669,0,0,1-.223.478,2.693,2.693,0,0,1-.478.382,1.9,1.9,0,0,1-.478.223q-.223.064-.159.064l-.064.064a.13.13,0,0,1-.1-.032.13.13,0,0,0-.1-.032,1.271,1.271,0,0,1,.7-.669Q127.918-492.069,128.237-492.26Zm6.622-4.075-.382.637a.683.683,0,0,1-.637.318,6.955,6.955,0,0,1,.35-.6q.223-.35.478-.35Zm-8.978,5.03a6.483,6.483,0,0,1,1.178-.987,2.81,2.81,0,0,1,1.178-.6,12.79,12.79,0,0,1-1.114.891A7.606,7.606,0,0,1,125.881-491.305Zm-.764,1.146a3.265,3.265,0,0,1,1.21-.764A1.194,1.194,0,0,1,125.117-490.159Zm-3.884,1.528v-.127q0-.191.127-.191a.709.709,0,0,1,.318.064,1.745,1.745,0,0,1-.223.1A.627.627,0,0,0,121.233-488.631Zm15.281-6.94a.739.739,0,0,0,.159-.1.736.736,0,0,1,.159-.1v.064q0,.191-.127.191A.259.259,0,0,1,136.514-495.571Zm-4.966.955q0-.191.255-.318A.4.4,0,0,1,131.548-494.616Zm-11.333-13.689a.886.886,0,0,1-.382.064.367.367,0,0,1,.255-.127Q120.214-508.369,120.214-508.305Zm-11.4,29.352v.382q-.127-.127-.127-.191T108.817-478.953Zm19.993-14.453q.064-.064.064-.1t.127-.159v.127a.2.2,0,0,1-.127.191A.056.056,0,0,1,128.81-493.406Zm-20.247,13.053a.523.523,0,0,0,.032.159.524.524,0,0,1,.032.159q-.127,0-.127-.318Zm4.011-9.169.127-.127q0,.064.032.064t.032.064h-.191Zm2.738-1.4.064-.064a.056.056,0,0,1,.064.064l-.064.064Zm-.7,4.584q0,.064-.127.064,0-.064.127-.191Zm-1.783.764v-.127l.064.064ZM135.5-493.6q0-.191.064-.191-.064.064-.064.1t-.064.1ZM116.139-487.1l-.064.064-.064-.064h.127Zm9.1-3.757a.184.184,0,0,0-.127.064v-.064a.183.183,0,0,0,.127-.064Zm-15.727,2.547a6.262,6.262,0,0,0,.669-.318,3.892,3.892,0,0,1,.8-.318q0,.255-.637.478t-.764.287A.183.183,0,0,0,109.517-488.313ZM165.1-492.26a1.369,1.369,0,0,0-.764.255,6.114,6.114,0,0,0-.7.541,3.884,3.884,0,0,0-.509.541q-.191.255-.255.255a2.076,2.076,0,0,0-.669.478.987.987,0,0,1-.669.35l-.064-.064h-.064l-.064.064q0,.064-.032.064t-.032.064a1.117,1.117,0,0,1,.318-.127,8.223,8.223,0,0,0-.86.637,2.685,2.685,0,0,1-.732.446.26.26,0,0,0-.191-.064q-.064,0-.127.127a.709.709,0,0,1,.318-.064l-.127.127.127.127a.815.815,0,0,1-.669.318q-.414,0-.414.318a1.117,1.117,0,0,0,.318-.127,2.092,2.092,0,0,1-.6.446.41.41,0,0,0-.287.382l-.255-.127-.064.064q0,.064-.032.064t-.032.064a.444.444,0,0,0,.191-.032.443.443,0,0,1,.191-.032,6.013,6.013,0,0,0-.955.7,2.8,2.8,0,0,0-.637.7l-.064.127h-.127a.932.932,0,0,0-.318.191q-.255.191-.509.414t-.509.414a.931.931,0,0,1-.318.191,2.839,2.839,0,0,1-.923.669q-.414.159-.414.287a.13.13,0,0,0,.032.1.13.13,0,0,1,.032.1.408.408,0,0,1-.382.255.611.611,0,0,0-.446.191.259.259,0,0,0-.064-.191,3.644,3.644,0,0,0-.7.637l.064.064a1.643,1.643,0,0,1,.7-.573v.255a.25.25,0,0,1-.191.255q0-.255-.127-.255,0,.7-.541.8a1.836,1.836,0,0,0-.987.541l.064-.127q-.064,0-.191.127.127,0,.127.064-.255.573-.509.669a2.184,2.184,0,0,0-.446.223.252.252,0,0,0,.032.159.252.252,0,0,1,.032.159,2.879,2.879,0,0,1-.382.255.689.689,0,0,0-.255.318q-.127-.064-.1-.159t-.223-.1q-.255,0-.446.446a.374.374,0,0,1,.318-.191h.318a.184.184,0,0,0,.127-.064l-.191.191a1.458,1.458,0,0,0,.764.191h.955a.13.13,0,0,0,.1-.032.13.13,0,0,1,.1-.032q.318,0,.669.032t.669.032a6.793,6.793,0,0,0,1.178-.1,6.4,6.4,0,0,1,1.114-.1.887.887,0,0,0,.382.064,1.093,1.093,0,0,0,.446-.064,2.322,2.322,0,0,1,.382.032,2.74,2.74,0,0,0,.446.032q.318,0,.669-.032t.669-.032a.706.706,0,0,1,.223.032.705.705,0,0,0,.223.032,4.1,4.1,0,0,0,.509-.032,4.105,4.105,0,0,1,.509-.032,2.679,2.679,0,0,1,.637.064,2.936,2.936,0,0,0,.414-.032,3.383,3.383,0,0,1,.478-.032q1.273,0,2.579.127t2.515.318a7.083,7.083,0,0,0,.732.127q.478.064.955.159t.891.191a1.2,1.2,0,0,1,.541.223l.446.446a.611.611,0,0,0-.191.446v.064a.392.392,0,0,1-.064.223.392.392,0,0,0-.064.223.675.675,0,0,0,.159.446,1.131,1.131,0,0,1,.159.7,4.165,4.165,0,0,1-.255.446,4.415,4.415,0,0,1,.191,1.019.709.709,0,0,0-.064.318.432.432,0,0,0,.127.318.367.367,0,0,1,.127.255.521.521,0,0,1-.191.318.91.91,0,0,1,.35.669q.032.414.032.669a2.629,2.629,0,0,1-.032.35,3.384,3.384,0,0,0-.032.478.565.565,0,0,0,.064.255.489.489,0,0,1,.064.191q0,.127-.064.127t-.064.127a.977.977,0,0,0,.127.382.521.521,0,0,0-.191.318.259.259,0,0,0,.064.191l.127.127a.392.392,0,0,1-.064.223.309.309,0,0,0-.064.159,1.2,1.2,0,0,0,.064.382,1.2,1.2,0,0,1,.064.382q0,.064-.127.064h-.255q-1.655-.382-3.279-.669a21.608,21.608,0,0,0-3.725-.287,4.657,4.657,0,0,1-.573-.032,4.651,4.651,0,0,0-.573-.032,3.022,3.022,0,0,1-.7.064q-.382,0-.8-.032t-.8-.1q-1.21,0-2.388.064t-2.451.064a1.862,1.862,0,0,1-.637-.064,2.635,2.635,0,0,0-.478.032,2.639,2.639,0,0,1-.478.032h-.446a1.093,1.093,0,0,0-.446.064,23.159,23.159,0,0,1-3.629-.255,22.692,22.692,0,0,0-3.566-.255.443.443,0,0,0-.191.032.444.444,0,0,1-.191.032,4.755,4.755,0,0,1-1.433-.255,1.2,1.2,0,0,1-.923-.891.783.783,0,0,0-.159-.287q-.159-.223-.35-.509t-.382-.541q-.191-.255-.255-.255a.183.183,0,0,1-.064-.127.183.183,0,0,0-.064-.127q.255-.255.255-.318a1.51,1.51,0,0,0-.35-.669,1.737,1.737,0,0,1-.35-1.051v-.127a1.2,1.2,0,0,0-.223-.7,2.117,2.117,0,0,1-.223-1.146v-.064q-.064,0-.064-.191a.444.444,0,0,1,.032-.191.443.443,0,0,0,.032-.191.56.56,0,0,1-.414-.573q.032-.382-.159-.382h-.064q-.064,0-.064.032t-.064.032a2.1,2.1,0,0,1-.127-.637.783.783,0,0,1,.064-.287.782.782,0,0,0,.064-.286.2.2,0,0,0-.127-.191,16.3,16.3,0,0,1,2.42-2.419q1.337-1.082,2.419-2.038,1.655-1.719,2.26-2.292a4.958,4.958,0,0,1,.8-.669l.318-.159a6.873,6.873,0,0,0,.828-.764q.891-.764,1.783-1.433a12.262,12.262,0,0,0,1.655-1.5,31.3,31.3,0,0,1,3.056-2.77q1.783-1.433,3.47-2.674t3.024-2.133q1.337-.891,1.719-1.21a.5.5,0,0,0,.1-.127.906.906,0,0,1,.159-.191,2.461,2.461,0,0,0-.669-.032,1.968,1.968,0,0,1-.6-.032q-.064-.255-.573-.255-.127,0-.191.255-1.019,0-3.47-.064t-5.189-.223q-2.738-.159-5.157-.318a33.039,33.039,0,0,1-3.438-.35,15.536,15.536,0,0,1-4.3-.923,2.3,2.3,0,0,1-1.369-2.324.392.392,0,0,0-.064-.223.392.392,0,0,1-.064-.223.782.782,0,0,1,.064-.286.782.782,0,0,0,.064-.287.444.444,0,0,0-.032-.191.283.283,0,0,1-.032-.127,1.476,1.476,0,0,1,.032-.287,1.476,1.476,0,0,0,.032-.286q0-.255-.064-.255a.369.369,0,0,0,.064-.255.709.709,0,0,0-.064-.318.565.565,0,0,1-.064-.255.444.444,0,0,1,.032-.191.443.443,0,0,0,.032-.191,1.026,1.026,0,0,1-.127-.446.708.708,0,0,0,.064-.318,1.313,1.313,0,0,0-.255-.509,1.864,1.864,0,0,0,.318-.509,1.047,1.047,0,0,0,.064-.318v-.127q.064-.191.446-.191h.255a.519.519,0,0,0,.382-.127l.318.318a.521.521,0,0,0,.318.191.709.709,0,0,0,.318-.064.709.709,0,0,1,.318-.064q.064,0,.669.064t1.305.1q.7.032,1.273.1t.637.064a.283.283,0,0,0,.127-.032.283.283,0,0,1,.127-.032q-.064,0,.923.032t2.483.064q1.5.032,3.215.1t3.215.1q1.5.032,2.483.064l.987.032q.191-.064-.446-.159t-1.655-.159q-1.019-.064-2.26-.159t-2.26-.159q-1.019-.064-1.687-.1t-.478-.032a3.74,3.74,0,0,1-.669-.064,4.649,4.649,0,0,1-.637-.159,1.527,1.527,0,0,1-.414-.191q-.127-.1,0-.223a6.39,6.39,0,0,0,1.146.191q.7.064,1.464.127t1.464.064H153a4.242,4.242,0,0,1,.891.1,4.554,4.554,0,0,0,.955.1,1.477,1.477,0,0,0,.287-.032,1.477,1.477,0,0,1,.287-.032,1.047,1.047,0,0,1,.255.032,1.047,1.047,0,0,0,.255.032,2,2,0,0,0,.318-.032,2.321,2.321,0,0,1,.382-.032.571.571,0,0,1,.287.1.668.668,0,0,0,.35.1.571.571,0,0,0,.287-.1.8.8,0,0,1,.414-.1.489.489,0,0,0,.191.064.444.444,0,0,0,.191-.032.444.444,0,0,1,.191-.032.257.257,0,0,0,.255.127,1.107,1.107,0,0,0,.446-.191l.191.191a.489.489,0,0,0,.191-.064.708.708,0,0,1,.318-.064q.127,0,.127.032t.127.032a.183.183,0,0,0,.127-.064.183.183,0,0,1,.127-.064q.127,0,.159.064a.1.1,0,0,0,.1.064.283.283,0,0,0,.127-.032.444.444,0,0,1,.191-.032q.127.191.287.159a.68.68,0,0,1,.35.032.275.275,0,0,0,.223-.127.505.505,0,0,1,.414-.127h1.082a10.37,10.37,0,0,1,1.146.064.678.678,0,0,0-.35.064q-.1.064-.032.064.127,0,.414.032a4.908,4.908,0,0,0,.541.032.954.954,0,0,0,.509-.159,1.465,1.465,0,0,1,.764-.159q1.082,0,2.26.064t2.26.064a3.2,3.2,0,0,0-.7-.1l-1.051-.064q-.541-.032-.955-.064t-.414-.1q1.273,0,2.579.127t2.515.127a1.787,1.787,0,0,0,.35-.032,1.788,1.788,0,0,1,.35-.032,17,17,0,0,1,1.878.127q1.114.127,1.369.637l-.127.127a.709.709,0,0,1,.064.318.55.55,0,0,1-.191.382.183.183,0,0,0,.064.127.74.74,0,0,1,.127.191.741.741,0,0,0,.127.191.259.259,0,0,1-.064.191l-.191.191a.741.741,0,0,0,.127.191.74.74,0,0,1,.127.191q-.318.064-.318.8v1.815a1.656,1.656,0,0,1,.064.509,2.74,2.74,0,0,1-.032.446,2.744,2.744,0,0,0-.032.446q0,.191.127.191a.374.374,0,0,0-.191.318.444.444,0,0,0,.032.191.283.283,0,0,1,.032.127,5.875,5.875,0,0,1-.064.828,5.522,5.522,0,0,0-.064.764,1.992,1.992,0,0,0,.064.541,1.73,1.73,0,0,1,.064.478,8.776,8.776,0,0,1-1.56,1.655,5.721,5.721,0,0,1-1.942,1.082,6.753,6.753,0,0,1-1.305.987q-.8.478-1.5.987a.259.259,0,0,1-.064-.191q0-.127.159-.191a.4.4,0,0,0,.223-.191h-.127a1.089,1.089,0,0,0-.509.191q-.318.191-.669.382t-.573.318q-.223.127-.1.064,0,.127.032.127t.032.064a.576.576,0,0,1-.414.1.893.893,0,0,0-.414.032,1.159,1.159,0,0,1-.382.509,6.442,6.442,0,0,1-.891.509.565.565,0,0,1-.064-.255q-.382.127-.541.191a1.571,1.571,0,0,0-.478.509.432.432,0,0,1,.318.127,1.584,1.584,0,0,1-.7.382v-.318a.13.13,0,0,1,.1.032.252.252,0,0,0,.159.032,1.365,1.365,0,0,0-.255-.318Zm-6.876,22.349a2.055,2.055,0,0,0,1.146.191q.637-.064,1.082-.064h.127a.705.705,0,0,1,.223.032.706.706,0,0,0,.223.032.428.428,0,0,0,.382-.191,1.582,1.582,0,0,0-.573-.064q-.7,0-1.337.032T158.226-469.912Zm-2.865,0q0,.127.764.127h1.146q0,.064.1,0t.032-.127a2,2,0,0,1-.318-.032,2,2,0,0,0-.318-.032,4.657,4.657,0,0,0-.573.032,4.651,4.651,0,0,1-.573.032Zm9.1.127q-.318-.064-.6-.1a5.479,5.479,0,0,0-.6-.032,2.562,2.562,0,0,0-.7.064,1.931,1.931,0,0,0,.573.064h1.337Zm-9.36,0v-.127h-.7a1.869,1.869,0,0,0-.7.127Zm4.2-29.989a2,2,0,0,1,.318.032,4.388,4.388,0,0,0,.637.032l.127-.064Zm5.412,30.053a.978.978,0,0,0,.382.127.367.367,0,0,0,.255-.127.432.432,0,0,0-.318-.127A1.117,1.117,0,0,0,164.72-469.721Zm2.674-23.94a.887.887,0,0,0-.382-.064q-.127,0-.191.191a.632.632,0,0,1,.287-.064A.632.632,0,0,0,167.394-493.661Zm-5.667,23.749a.432.432,0,0,0,.318.127l.255-.127Zm-4.266-16.682a1.475,1.475,0,0,0-.318-.191l-.064.127a.169.169,0,0,0,.191.191Q157.334-486.466,157.462-486.594Zm.446-13.18a.565.565,0,0,0-.255-.064.184.184,0,0,0-.127.064Zm-3.5,29.48a.169.169,0,0,0-.191-.191q-.064,0-.127.191Zm-.382-13.689a.183.183,0,0,0-.127-.064l-.064.064.064.064A.183.183,0,0,0,154.023-483.983Zm4.712-15.854q0,.064.191.064Q158.926-499.837,158.735-499.837Zm-.255,11.97q0,.064-.032.064t-.032.064l.064.064q.064,0,.064-.127Zm3.82-11.906v-.064a.259.259,0,0,0-.191.064Zm-12.925,19.8-.064-.064q0,.064-.032.064t-.032.127Zm-1.528.637a.113.113,0,0,0,.127-.127Z" transform="translate(70.783 552.767) rotate(-7)" fill="#ff0084"/></svg>